<svg viewBox="0 0 20 20"  xmlns="http://www.w3.org/2000/svg"><path fill="none" d="M16.863 15.2L19 10.98H3.63a.391.391 0 0 0-.371.267l-1.476 4.428m15.652-4.696L13.6 6.098a1.565 1.565 0 0 0-1.229-.599l-8.33-.012a.391.391 0 0 0-.298.136L2.387 7.2a.391.391 0 0 0 .296.647h2.511a.391.391 0 0 1 .38.486l-.66 2.644m9.446-3.913H8.988a.391.391 0 0 0-.277.668l1.222 1.221c.293.294.691.459 1.106.459h5.165M10.78 5.497L7.65 2.37M1 17.575c1.918.408 3.522-1.565 3.522-1.565a3.35 3.35 0 0 0 2.733 1.548A3.22 3.22 0 0 0 10 16.01a3.191 3.191 0 0 0 2.734 1.548 3.38 3.38 0 0 0 2.744-1.548s1.604 1.973 3.522 1.565" stroke="#000" stroke-width="1.2" stroke-linecap="round" stroke-linejoin="round"/></svg>