<svg xmlns="http://www.w3.org/2000/svg" viewBox="0 0 20 20"><path stroke="#000" fill="none" d="M10 12.8a2.75 2.75 0 1 0-2.75-2.75A2.75 2.75 0 0 0 10 12.8z"/><path stroke="#000" fill="none" d="M16.6 6.2h-2.2a1.55 1.55 0 0 1-.94-.39L12 4.39a1.55 1.55 0 0 0-.9-.39H8.9a1.55 1.55 0 0 0-.9.39L6.54 5.81a1.55 1.55 0 0 1-.94.39H3.4a1.65 1.65 0 0 0-1.65 1.65v5.5A1.65 1.65 0 0 0 3.4 15h13.2a1.65 1.65 0 0 0 1.65-1.65v-5.5A1.65 1.65 0 0 0 16.6 6.2z"/><path stroke="#000" fill="none" d="M15.5 8.67a.28.28 0 0 1 .27.28.27.27 0 1 1-.54 0 .28.28 0 0 1 .27-.28"/></svg>