<svg xmlns="http://www.w3.org/2000/svg" viewBox="0 0 30 27"><path clip-rule="evenodd" d="M1.034 2a1 1 0 0 1 1-1h25.932a1 1 0 0 1 1 1v18.645a1 1 0 0 1-1 1H2.034a1 1 0 0 1-1-1V2z" fill="none" stroke="#000" stroke-width="1.5" stroke-linecap="round" stroke-linejoin="round"/><path d="M8.928 25.288h12.144M13.178 21.645v3.643M16.822 21.645v3.643M15 7.713s1.533-2.006 6.638-2.213a.868.868 0 0 1 .608.218.752.752 0 0 1 .254.56v8.233c0 .424-.365.77-.82.777C16.542 15.48 15 17.5 15 17.5V7.713S13.467 5.707 8.362 5.5a.868.868 0 0 0-.608.218.752.752 0 0 0-.254.56v8.233c0 .424.365.77.82.777C13.458 15.48 15 17.5 15 17.5" fill="none" stroke="#000" stroke-width="1.5" stroke-linecap="round" stroke-linejoin="round"/></svg>