<svg viewBox="0 0 20 20" fill="none" xmlns="http://www.w3.org/2000/svg"><path d="M11.115 16.954h2.454a4.634 4.634 0 0 0 4.5-4.653V3.455m-6.954 13.5a2.045 2.045 0 1 1-4.091 0m4.09 0a2.045 2.045 0 0 0-4.09 0m0 0H5.387M18.07 1v.818m-9 8.846a3 3 0 0 0 2.864 3.018h2.045a2.182 2.182 0 0 0 2.046-2.2v-.818a3.553 3.553 0 0 0-3.682-3.528H9.069m0 3.528V7.136m0 3.528a2.998 2.998 0 0 1-2.863 3.018H4.16a2.185 2.185 0 0 1-2.045-2.2v-.818a3.554 3.554 0 0 1 3.681-3.528H9.07" stroke="#000" stroke-width="1.2" stroke-linecap="round" stroke-linejoin="round"/></svg>