<svg viewBox="0 0 19 29" xmlns="http://www.w3.org/2000/svg"><path fill="none" stroke="#000" d="M1.5 15.762h9.39M1.5 22.805h9.39m5.35-7.044a1.762 1.762 0 0 1 0 3.522m0-3.523a1.762 1.762 0 0 0 0 3.523m0-3.523V8.719a4.695 4.695 0 0 0-4.696-4.695H9m7.24 15.26v4.108M5.542 3.761l.652-.652m4.695 10.304a4.695 4.695 0 1 0-9.39 0v12.912c0 .648.526 1.174 1.174 1.174h7.043c.648 0 1.173-.526 1.173-1.174V13.413zM6 6.5a2.74 2.74 0 1 0 0-5.479A2.74 2.74 0 0 0 6 6.5z" stroke-width="1.5" stroke-linecap="round" stroke-linejoin="round" /></svg>