<svg viewBox="0 0 20 20" fill="none" xmlns="http://www.w3.org/2000/svg"><path d="M11.174 11.957h5.478m-5.478-2.348h5.478m-3.13-2.348h2.739M2.957 11.957c.013-.383.105-.76.272-1.105.192-.383.993-.65 2-1.023.272-.1.227-.81.107-.943a2.009 2.009 0 0 1-.523-1.557 1.245 1.245 0 0 1 1.274-1.36 1.245 1.245 0 0 1 1.274 1.36 2.009 2.009 0 0 1-.523 1.557c-.12.133-.165.843.108.943 1.006.374 1.807.64 2 1.023.166.345.258.722.271 1.105h-6.26zM15.87 15.87a1.565 1.565 0 0 0-3.13 0v.39a.391.391 0 0 1-.392.392H7.26a.391.391 0 0 1-.391-.391v-.391a1.565 1.565 0 0 0-3.13 0v.39a.391.391 0 0 1-.392.392H1.783A.783.783 0 0 1 1 15.87V4.13c0-.432.35-.782.783-.782h16.434c.433 0 .783.35.783.783V15.87c0 .432-.35.782-.783.782h-1.956a.391.391 0 0 1-.391-.391v-.391z" stroke="#000" stroke-width="1.5" stroke-linecap="round" stroke-linejoin="round"/></svg>