<svg version="1.1" id="Layer_1" xmlns="http://www.w3.org/2000/svg" x="0" y="0" viewBox="0 0 20 20" xml:space="preserve"><style>.st0{fill:#404040}</style><path fill="#404040" d="M14.96 7.06h-.6V4.33c0-.04-.11-3.99-4.48-3.99-4.35 0-4.64 3.93-4.65 4v2.71h-.6c-1.11 0-2.01.9-2.01 2.01v8.5c0 1.11.9 2.01 2.01 2.01h10.33c1.11 0 2.01-.9 2.01-2.01v-8.5c-.01-1.1-.91-2-2.01-2zM6.22 4.37c.01-.12.23-3.03 3.65-3.03 3.37 0 3.48 2.89 3.48 3v2.71H6.22V4.37zm9.74 13.2c0 .56-.45 1.01-1.01 1.01H4.62c-.56 0-1.01-.45-1.01-1.01v-8.5c0-.56.45-1.01 1.01-1.01h10.33c.56 0 1.01.45 1.01 1.01v8.5z"/><path fill="#404040" d="M9.79 10.87c-1.35 0-2.45 1.1-2.45 2.45s1.1 2.45 2.45 2.45 2.45-1.1 2.45-2.45-1.1-2.45-2.45-2.45zm0 3.9a1.451 1.451 0 0 1 0-2.9 1.451 1.451 0 0 1 0 2.9z"/></svg>