<svg viewBox="0 0 30 24" xmlns="http://www.w3.org/2000/svg"><path d="M12.256.11l3.615 10.206H5.813l2.066-6.132h2.626L9.27 7.977h3.09L9.63.12l2.626-.008zM29.764.213a.416.416 0 0 1 .14.323.414.414 0 0 1-.14.314.463.463 0 0 1-.342.146.476.476 0 0 1-.442-.298.439.439 0 0 1-.03-.18.406.406 0 0 1 .14-.322.429.429 0 0 1 .332-.136.475.475 0 0 1 .341.153zm.052-.051A.506.506 0 0 0 29.44 0a.547.547 0 0 0-.513.333.498.498 0 0 0-.039.203.544.544 0 0 0 .158.391c.105.1.247.154.394.153A.548.548 0 0 0 30 .536a.483.483 0 0 0-.166-.374h-.018zm-.289.348a.198.198 0 0 1-.105 0h-.096V.315h.219a.108.108 0 0 1 0 .093.083.083 0 0 1-.018.102zm-.306.34h.105V.604h.201c.018 0 .061.068.061.136v.11h.105V.706a.116.116 0 0 0 0-.085.167.167 0 0 0-.105-.06.207.207 0 0 0 .088 0 .12.12 0 0 0 .061-.11.15.15 0 0 0-.022-.092.156.156 0 0 0-.074-.061.397.397 0 0 0-.166 0h-.21L29.22.85zM21.132.12h-4.657V2.55h3.256c.362-.008.721.055 1.058.184.336.129.643.322.901.567.259.246.464.54.604.863.14.324.213.672.212 1.023a2.615 2.615 0 0 1-.229 1.028 2.681 2.681 0 0 1-.618.863 2.769 2.769 0 0 1-.913.565 2.83 2.83 0 0 1-1.067.18h-.718v-3.7h-2.486v6.082h4.657c2.381-.213 4.106-2.552 4.106-5.06 0-2.51-1.9-4.814-4.106-5.027zM7.222 3.3a3.221 3.221 0 0 0-.987-2.253A3.411 3.411 0 0 0 3.913.094H0V2.55h3.58a.826.826 0 0 1 .55.223.781.781 0 0 1 .247.526.838.838 0 0 1-.256.601.889.889 0 0 1-.62.25H0v6.114h2.521V6.55h1.4a3.453 3.453 0 0 0 2.32-.983A3.262 3.262 0 0 0 7.222 3.3zM28.433.12h-2.574v10.12h2.574V.12zM0 12.391h4.456c1.672-.034 3.423.366 3.423 2.313a2.05 2.05 0 0 1-.348 1.112 2.137 2.137 0 0 1-.904.76c.485.133.91.42 1.208.817.297.396.448.878.429 1.368 0 2.203-1.663 2.875-3.703 2.875H0V12.39zm2.477 3.64h1.9a.956.956 0 0 0 .695-.214.904.904 0 0 0 .32-.636c0-.672-.499-.85-1.015-.85h-1.9v1.7zm0 3.674h1.988c.787 0 1.339-.272 1.339-1.037 0-.766-.552-1.089-1.34-1.089H2.478v2.126zM9.63 12.391h2.267v9.245H9.629V12.39zM16.79 14.722c.486-.016.97.066 1.421.24.452.173.862.435 1.205.77.343.334.612.733.79 1.172.177.44.26.91.243 1.38.021.473-.059.944-.235 1.384-.177.44-.446.84-.79 1.173a3.514 3.514 0 0 1-1.21.765c-.453.17-.938.247-1.424.225a3.595 3.595 0 0 1-1.424-.225 3.513 3.513 0 0 1-1.21-.765 3.394 3.394 0 0 1-.79-1.173 3.314 3.314 0 0 1-.235-1.383 3.314 3.314 0 0 1 .23-1.389c.175-.442.444-.843.788-1.179a3.514 3.514 0 0 1 1.213-.769 3.595 3.595 0 0 1 1.428-.226zm0 5.425c1.06 0 1.392-1.012 1.392-1.862 0-.85-.333-1.88-1.392-1.88-1.06 0-1.374 1.02-1.374 1.88 0 .859.341 1.862 1.374 1.862zM28.328 20.82c0 1.105-.21 3.18-3.458 3.18-1.61 0-3.134-.357-3.396-2.152h2.267a.7.7 0 0 0 .116.338c.067.1.16.184.269.24.275.118.576.167.875.145 1.077 0 1.182-.74 1.182-1.565v-.595c-.197.301-.468.55-.79.722a2.24 2.24 0 0 1-1.048.265c-2.092 0-3.038-1.455-3.038-3.343s1.077-3.291 3.038-3.291c.379-.015.754.074 1.082.258.329.184.597.454.774.78v-.85h2.17l-.043 5.867zm-3.502-4.415c-.998 0-1.313.85-1.313 1.701 0 .85.368 1.582 1.304 1.582.937 0 1.375-.731 1.375-1.573s-.359-1.71-1.375-1.71h.01z" svg-fill="none"/></svg>