<svg xmlns="http://www.w3.org/2000/svg" fill="none" viewBox="0 0 20 20"><path d="M14.305 13.303s-1.581-.7-2.686-1.108c-.725-.27-.622-1.492-.202-1.952a3.354 3.354 0 00.985-2.764A2.348 2.348 0 0010 4.912a2.348 2.348 0 00-2.402 2.567 3.354 3.354 0 00.985 2.764c.42.46.523 1.682-.202 1.952-1.105.409-2.686 1.108-2.686 1.108" stroke="#000" stroke-width="1.5" stroke-linecap="round" stroke-linejoin="round"/><path d="M10.836 18.845l.83-.313a10.175 10.175 0 006.553-9.51V3.934a1.565 1.565 0 00-.94-1.436 18.422 18.422 0 00-14.554 0 1.566 1.566 0 00-.944 1.435V9.02a10.175 10.175 0 006.553 9.51l.83.314a2.341 2.341 0 001.672 0v0z" stroke="#000" stroke-width="1.5" stroke-linecap="round" stroke-linejoin="round"/></svg>