<svg viewbox="0 0 21 20" xmlns="http://www.w3.org/2000/svg"><path d="M6.386 11.914h-.762v1.12h.762a.559.559 0 0 0 .549-.545c0-.314-.242-.575-.549-.575zM9.457 11.936h-.759v2.015h.759c1.233 0 1.288-2.015 0-2.015z" fill="#404040"/><path d="M15.672 9.438H3.101a.569.569 0 0 0-.572.562v5.625c0 .31.257.563.572.563h12.571a.568.568 0 0 0 .572-.563V10a.568.568 0 0 0-.572-.563zm-9.286 4.158h-.762v.594c0 .198-.128.31-.293.31a.306.306 0 0 1-.31-.31v-2.532c0-.149.119-.311.31-.311h1.055c.595 0 1.13.391 1.13 1.142-.001.711-.535 1.107-1.13 1.107zm3.112.904H8.41c-.15 0-.315-.082-.315-.279v-2.554c0-.162.165-.28.315-.28h1.047c2.088 0 2.042 3.113.04 3.113zm4.071-2.528h-1.33v.715h1.165c.165 0 .33.162.33.32 0 .148-.165.269-.33.269H12.24v.944a.269.269 0 0 1-.274.28c-.2 0-.324-.122-.324-.28v-2.554c0-.162.124-.279.324-.279h1.604c.201 0 .32.117.32.28a.312.312 0 0 1-.32.305z" fill="#404040"/><path d="M17.958 5.267l-3.764-3.705c-.33-.326-.91-.562-1.38-.562H6.53c-.945 0-1.714.757-1.714 1.688v5.624c0 .312.255.563.571.563a.567.567 0 0 0 .572-.563V2.689c0-.31.256-.563.571-.563h5.143c.631 0 1.143.504 1.143 1.125v2.11c0 .696.58 1.265 1.286 1.265h2.143c.63 0 1.142.504 1.142 1.125v9.563c0 .31-.255.562-.571.562H6.529a.568.568 0 0 1-.571-.563.566.566 0 0 0-.572-.562.566.566 0 0 0-.571.563c0 .93.77 1.687 1.714 1.687h10.286c.945 0 1.714-.757 1.714-1.688V6.626c0-.46-.24-1.032-.571-1.358z" fill="#404040"/></svg>