<svg viewBox="0 0 20 20" fill="none" xmlns="http://www.w3.org/2000/svg"><path d="M9.348 10.75H19m-9.652 0l3.217-3.217M9.348 10.75l3.217 3.217M7.74 3.11h6.033c.222 0 .402.18.402.402v2.01m0 10.457v2.011c0 .222-.18.402-.402.402H7.739M.5 18.17c0 .188.131.351.315.392l6.435 1.43a.402.402 0 0 0 .49-.393V1.902a.402.402 0 0 0-.49-.392L.815 2.94a.402.402 0 0 0-.315.392V18.17zm4.424-6.212a1.207 1.207 0 1 0 0-2.413 1.207 1.207 0 0 0 0 2.413z" fill="none" stroke="#000000" stroke-width="1.2" stroke-linecap="round" stroke-linejoin="round"/></svg>