<svg viewBox="0 0 20 20" xmlns="http://www.w3.org/2000/svg"><path d="M18.886 15.682a3.982 3.982 0 0 1-2.961-1.546 3.985 3.985 0 0 1-2.963 1.546A3.982 3.982 0 0 1 10 14.136a3.982 3.982 0 0 1-2.962 1.546 3.984 3.984 0 0 1-2.963-1.546 3.982 3.982 0 0 1-2.961 1.546m17.772-3.091a3.982 3.982 0 0 1-2.961-1.546 3.984 3.984 0 0 1-2.963 1.546A3.982 3.982 0 0 1 10 11.045a3.982 3.982 0 0 1-2.962 1.546 3.984 3.984 0 0 1-2.963-1.546 3.982 3.982 0 0 1-2.961 1.546M14.11 1l1.944 1.944m0 0L14.111 4.89m1.944-1.945H9.833M5.778 3L3.833 4.944m0 0L5.778 6.89M3.833 4.944h6.223m8.83 4.556a3.982 3.982 0 0 1-2.961-1.545A3.984 3.984 0 0 1 12.962 9.5 3.982 3.982 0 0 1 10 7.955 3.982 3.982 0 0 1 7.038 9.5a3.984 3.984 0 0 1-2.963-1.545A3.982 3.982 0 0 1 1.115 9.5v7.727c0 .427.346.773.772.773h16.228a.773.773 0 0 0 .772-.773V9.5z" fill="none" stroke="#000" stroke-width="1.2" stroke-linecap="round" stroke-linejoin="round"/></svg>