<svg viewBox="0 0 20 20" fill="none" xmlns="http://www.w3.org/2000/svg"><path d="M14.111 1l1.944 1.944m0 0L14.111 4.89m1.944-1.945H9.833M5.778 5L3.833 6.944m0 0L5.778 8.89M3.833 6.944h6.223m8.888 4.612A4.008 4.008 0 0 1 15.964 10a4.01 4.01 0 0 1-2.983 1.556A4.008 4.008 0 0 1 10 10a4.008 4.008 0 0 1-2.981 1.556A4.01 4.01 0 0 1 4.037 10a4.008 4.008 0 0 1-2.981 1.556v4.666c0 .43.348.778.777.778h16.334c.43 0 .777-.348.777-.778v-4.666z" stroke="#000" stroke-width="1.2" stroke-linecap="round" stroke-linejoin="round"/></svg>