<svg xmlns="http://www.w3.org/2000/svg" viewBox="0 0 20 20"><path d="M14.3 17.87V16.7c0-3.1-2.27-3.6-4.4-4.39-.72-.26-.6-2.12-.28-2.46A5.3 5.3 0 0 0 11 5.78a3.25 3.25 0 0 0-3.35-3.56 3.25 3.25 0 0 0-3.33 3.55 5.23 5.23 0 0 0 1.37 4.07c.31.35.43 2.21-.28 2.47C3.31 13.09 1 13.58 1 16.7v1.17zm1.96 0H19V16.7c0-3.1-2.27-3.6-4.41-4.39-.71-.26-.59-2.12-.28-2.46a5.26 5.26 0 0 0 1.37-4.07 3.26 3.26 0 0 0-3.33-3.56 3.33 3.33 0 0 0-.78.08" fill="none" stroke="#000" stroke-linecap="round" stroke-linejoin="round"/></svg>