<svg xmlns="http://www.w3.org/2000/svg" viewBox="0 0 20 20" fill="none"><path d="M18.998 9.846A9.131 9.131 0 0 1 10 18.999 8.864 8.864 0 0 1 1 10.157a9.132 9.132 0 0 1 9-9.156 8.867 8.867 0 0 1 8.998 8.845zM10 11.64V5.915" stroke="#000" stroke-width="1.2" stroke-linecap="round" stroke-linejoin="round"/><path d="M9.993 13.277a.2.2 0 0 0-.197.209.208.208 0 0 0 .207.2v0a.2.2 0 0 0 .197-.209.207.207 0 0 0-.2-.2h-.004" stroke="#000" stroke-width="1.2" stroke-linecap="round" stroke-linejoin="round"/></svg>