<svg viewBox="0 0 20 20" fill="none" xmlns="http://www.w3.org/2000/svg"><path d="M13.92 12.732h.784a3.134 3.134 0 0 0 1.764-5.724A2.35 2.35 0 0 0 14.02 3.74a4.31 4.31 0 0 0-8.305 1.176 3.917 3.917 0 0 0 .37 7.815h.783m5.093 1.567a1.567 1.567 0 0 1-3.134 0c0-.866 1.567-3.134 1.567-3.134s1.567 2.272 1.567 3.134zm4.309 3.134a1.567 1.567 0 1 1-3.134 0c0-.866 1.567-3.134 1.567-3.134s1.567 2.272 1.567 3.134zm-8.619 0a1.567 1.567 0 1 1-3.134 0c0-.866 1.567-3.134 1.567-3.134s1.567 2.272 1.567 3.134z" stroke="#000" stroke-width="1.2" stroke-linecap="round" stroke-linejoin="round"/></svg>