<svg viewBox="0 0 20 20" xmlns="http://www.w3.org/2000/svg"><path d="M6.5 3l2.125-.594.296-.976h1.783l.296.976 2.218.631M6.5 3l-4.056 8.1 1.39.574L7.383 6.31M6.5 3c0 .603 1.5 2.5 3.258 2.5 1.981 0 3.46-1.889 3.46-2.463M7.383 6.31L6.732 20.34l1.005.23 2.02-8.896 1.894 8.896 1.035-.115-.444-14.147m-4.86 0l1.302 1.579-.387 3.787-1.18.46m6.101-9.097l4.259 8.264-1.272.66-3.963-5.653m0 0l-1.37 1.579.376 3.787 1.177.46m-4.257 6.542L7.01 14.343m4.238 4.333l1.246-4.333" fill="none" stroke="#000" stroke-width="1.2" stroke-miterlimit="10" stroke-linecap="round" stroke-linejoin="round"/></svg>