<svg viewBox="0 0 20 20" xmlns="http://www.w3.org/2000/svg"><path d="M9.118 19.518l-2.558-.579.554-11.992-1.66 1.64-1.936-.9 2.49-4.404L8.5 2.5l.411-1.018h2.178l.345.877 2.559.924 2.489 4.082-1.936 1.35-1.66-1.768.554 11.992-2.558.579m-1.764 0l.865-6.559.899 6.559m-1.764 0L7 16.5m3.882 3.018L13 16.5M4.5 7.687c.207-.514 1.654-.594 2-1.687 1.486-4.822 5.79-4.822 7 0 .277 1.19 1.91 1.269 2.186 1.912" fill="none" stroke="#000" stroke-width="1.2" stroke-miterlimit="10" stroke-linecap="round" stroke-linejoin="round"/></svg>