<svg xmlns="http://www.w3.org/2000/svg" viewBox="0 0 20 20"><rect x=".42" y="3.33" width="19.17" height="13.33" rx="1.67" svg-fill="none"/><path d="M5.56 7.72a.86.86 0 0 1-.69.35 1.09 1.09 0 0 1 .93-1.14 1.11 1.11 0 0 1-.24.79zm.24.4c-.38 0-.71.23-.89.23s-.45-.22-.76-.21a1.13 1.13 0 0 0-1 .64 2.73 2.73 0 0 0 .29 2.48c.19.3.43.64.73.64s.4-.2.75-.2.46.2.77.19.51-.3.71-.6a2.45 2.45 0 0 0 .31-.7 1.09 1.09 0 0 1-.6-1 1.15 1.15 0 0 1 .5-.94 1.1 1.1 0 0 0-.85-.49zm2.2-.8v4.51h.66v-1.57h.91A1.39 1.39 0 0 0 11 8.89v-.12a1.39 1.39 0 0 0-1.27-1.49H8zm.66.59h.72a.81.81 0 0 1 .9.72 1.08 1.08 0 0 1 0 .18.83.83 0 0 1-.73.91h-.9zm3.54 4a1.07 1.07 0 0 0 1-.58v.55h.6V9.56a1.1 1.1 0 0 0-1.25-1.07 1.12 1.12 0 0 0-1.24 1h.61a.6.6 0 0 1 .6-.46c.41 0 .6.2.6.57v.25l-.82.06c-.76.05-1.21.38-1.21 1a1 1 0 0 0 .95 1h.17zm.18-.54c-.35 0-.6-.18-.6-.45s.21-.46.6-.48l.74-.05v.25a.74.74 0 0 1-.75.69zm2.24 1.74c.65 0 .95-.26 1.21-1.05L17 8.56h-.68l-.78 2.68-.78-2.68h-.71l1.12 3.31-.06.2a.54.54 0 0 1-.56.47h-.19v.55h.25z" fill="#fff"/></svg>