<svg viewBox="0 0 20 20" fill="none" xmlns="http://www.w3.org/2000/svg"><path fill="none" d="M19 18.913c-1.956.407-3.177-1.55-3.177-1.55a3.447 3.447 0 0 1-2.834 1.61 2.99 2.99 0 0 1-2.597-1.61 4.134 4.134 0 0 1-3.07 1.61 3.6 3.6 0 0 1-2.831-1.61s-1.565 1.99-3.487 1.582m17.997-5.163c-1.957.408-3.178-1.549-3.178-1.549a3.448 3.448 0 0 1-2.834 1.61 2.991 2.991 0 0 1-2.597-1.61 4.134 4.134 0 0 1-3.07 1.61 3.6 3.6 0 0 1-2.831-1.61s-1.565 1.99-3.487 1.581m17.997-5.032c-1.957.408-3.178-1.549-3.178-1.549a3.448 3.448 0 0 1-2.834 1.61 2.991 2.991 0 0 1-2.597-1.61 4.134 4.134 0 0 1-3.07 1.61 3.6 3.6 0 0 1-2.831-1.61s-1.565 1.99-3.487 1.581" stroke="#000" stroke-width="1.2" stroke-linecap="round" stroke-linejoin="round"/></svg>