<svg xmlns="http://www.w3.org/2000/svg" viewBox="0 0 20 20"><rect x=".42" y="3.33" width="19.17" height="13.33" rx="1.67" svg-fill="none"/><path d="M10.67 8.4a1.25 1.25 0 0 0 .06 2.5 1.25 1.25 0 0 0-.06-2.5zm-6.16 2.43h.4V8.46h-.4zm-.74-2.08a1.07 1.07 0 0 0-.37-.22 1.29 1.29 0 0 0-.4-.07h-.9v2.37h.85a1.42 1.42 0 0 0 .42-.07 1.11 1.11 0 0 0 .38-.22.93.93 0 0 0 .25-.37 1.05 1.05 0 0 0 .11-.53A1.18 1.18 0 0 0 4 9.12a1 1 0 0 0-.23-.37zM3.63 10a.62.62 0 0 1-.2.25.86.86 0 0 1-.29.14 1.47 1.47 0 0 1-.36 0h-.31V8.84h.38a1.33 1.33 0 0 1 .34.05.63.63 0 0 1 .27.11.56.56 0 0 1 .18.25.78.78 0 0 1 .06.37.83.83 0 0 1-.07.38zm2.94-.42a.76.76 0 0 0-.26-.12L6 9.4a1.18 1.18 0 0 1-.19-.11.21.21 0 0 1-.08-.19.35.35 0 0 1 .07-.1.24.24 0 0 1 .08-.09l.12-.1h.14a.59.59 0 0 1 .23 0 .29.29 0 0 1 .17.19l.3-.32a.8.8 0 0 0-.3-.19 1.07 1.07 0 0 0-.35-.06 1.06 1.06 0 0 0-.31.05.79.79 0 0 0-.28.13.65.65 0 0 0-.18.22.61.61 0 0 0-.08.32.66.66 0 0 0 .08.34.64.64 0 0 0 .2.2.85.85 0 0 0 .26.11l.26.1a.56.56 0 0 1 .2.12.22.22 0 0 1 .08.2.23.23 0 0 1 0 .14.22.22 0 0 1-.09.1.31.31 0 0 1-.13.06H6a.58.58 0 0 1-.26-.06.58.58 0 0 1-.19-.19l-.28.32a.72.72 0 0 0 .34.25 1.09 1.09 0 0 0 .4.07 1.12 1.12 0 0 0 .32 0 .87.87 0 0 0 .27-.14.69.69 0 0 0 .18-.24.64.64 0 0 0 .07-.33.57.57 0 0 0-.08-.34.61.61 0 0 0-.22-.23zm8.17.21h1v-.35h-1v-.56h1.11V8.5h-1.52v2.38h1.57v-.38h-1.17zm2.68 0a.61.61 0 0 0 .4-.21.78.78 0 0 0 .06-.77.58.58 0 0 0-.18-.2.75.75 0 0 0-.28-.11 1.12 1.12 0 0 0-.32 0h-.82v2.38h.41v-1H17l.53 1H18zm-.22-.34h-.49v-.63h.52a.44.44 0 0 1 .15 0 .31.31 0 0 1 .11.09.33.33 0 0 1 0 .17.35.35 0 0 1-.05.18.23.23 0 0 1-.12.1zm-8.57 1a.52.52 0 0 1-.27.07.71.71 0 0 1-.36-.08.64.64 0 0 1-.25-.18 1 1 0 0 1-.12-.26 1.07 1.07 0 0 1-.06-.35.88.88 0 0 1 .06-.33.92.92 0 0 1 .16-.32.64.64 0 0 1 .21-.15.88.88 0 0 1 .32-.07.63.63 0 0 1 .52.22l.31-.24a.94.94 0 0 0-.37-.29 1 1 0 0 0-.43-.09 1.32 1.32 0 0 0-.48.09 1.14 1.14 0 0 0-.39.25 1.28 1.28 0 0 0-.25.4 1.54 1.54 0 0 0-.09.52 1.48 1.48 0 0 0 .09.51 1.24 1.24 0 0 0 .25.39 1.14 1.14 0 0 0 .39.25 1.32 1.32 0 0 0 .48.09 1.12 1.12 0 0 0 .48-.1 1 1 0 0 0 .38-.33l-.34-.24a.69.69 0 0 1-.24.23zm4.37-.2l-.62-1.79h-.47l.9 2.37h.33l.92-2.37h-.4z" fill="#fff"/></svg>