<svg viewBox="0 0 30 30" xmlns="http://www.w3.org/2000/svg"><path d="M20.2 10.01a.75.75 0 0 0 1.5 0h-1.5zm.75-3.911h.75v-.313l-.223-.22-.528.533zM16.305 1.5l.527-.533-.219-.217h-.308v.75zm-13.063 0v.75-.75zM1.5 23.316H.75v.045l.005.045.745-.09zm8.13 2.363a.75.75 0 0 0 0-1.5v1.5zm8.13-16.19a.75.75 0 0 0 0-1.5v1.5zM4.4 7.988a.75.75 0 0 0 0 1.5v-1.5zm8.52 7.03a.75.75 0 0 0 0-1.5v1.5zm-8.52-1.5a.75.75 0 0 0 0 1.5v-1.5zm4.745 7.03a.75.75 0 0 0 0-1.5v1.5zm-4.744-1.5a.75.75 0 0 0 0 1.5v-1.5zm13.92 2.381a.75.75 0 1 0-1.066 1.055l1.067-1.055zm2.085 3.173l-.533.528.625.632.518-.723-.61-.437zm4.674-5.237a.75.75 0 1 0-1.219-.873l1.22.873zM21.7 10.01V6.1h-1.5v3.911h1.5zm-.223-4.444L16.833.967l-1.055 1.066 4.644 4.598 1.055-1.065zM16.306.75H3.243v1.5h13.063V.75zM3.243 1.5V.75H3.24 3.24a.92.92 0 0 0-.042 0l-.084.005a2.875 2.875 0 0 0-1.08.295c-.308.156-.637.4-.888.78-.253.384-.396.862-.396 1.432h1.5c0-.311.075-.494.148-.606a.786.786 0 0 1 .312-.266 1.377 1.377 0 0 1 .539-.14h-.003-.002l-.001-.75zM.75 3.262V23.316h1.5v-.002-.001-.002-.002-.003-.003-.004-.003-.005-.005-.005-.005-.006-.006-.007-.007-.008-.008-.008-.008-.01-.009-.01-.01-.01-.011-.012-.011-.012-.013-.012-.014-.013-.014-.014-.015-.015-.015-.016-.016-.016-.017-.017-.018-.017-.018-.019-.019-.019-.02-.02-.02-.02-.02-.022-.021-.022-.022-.023-.023-.023-.023-.024-.024-.024-.025-.025-.026-.025-.026-.026-.027-.027-.027-.027-.028-.028-.029-.028-.03-.029-.03-.029-.03-.03-.031-.031-.031-.032-.032-.032-.032-.033-.033-.033-.033-.034-.034-.034-.035-.034-.035-.036-.035-.036-.036-.036-.037-.036-.037-.038-.037-.038-.038-.038-.038-.04-.038-.04-.038-.04-.04-.04-.04-.04-.042-.04-.042-.041-.042-.041-.043-.042-.042-.043-.043-.043-.043-.043-.044-.044-.044-.044-.045-.044-.045-.045-.045-.046-.045-.046-.046-.046-.046-.047-.047-.046-.047-.047-.048-.047-.048-.048-.048-.048-.048-.049-.048-.049-.049-.049-.049-.05-.049-.05-.05-.05-.05-.05-.05-.05-.051-.05-.052-.05-.052-.051-.052-.051-.052-.051-.052-.052-.052-.053-.052-.052-.053-.053-.052-.053-.053-.053-.053-.054-.053-.053-.054-.054-.053-.054-.054-.054-.054-.054-.055-.054-.054-.055-.054-.055-.055-.054-.055-.055-.055-.055-.055-.055-.056-.055-.055-.056-.055-.056-.055-.056-.055-.056-.056-.055-.056-.056-.056-.056-.056-.056-.056-.056-.056-.056-.056-.056-.056-.056-.057-.056-.056-.056-.057-.056-.056-.056-.057-.056-.056-.057-.056-.056-.057-.056-.056-.056-.057-.056-.056-.056-.057-.056-.056-.056-.056-.056-.057-.056-.056-.056-.056-.056-.055-.056-.056-.056-.056-.055-.056-.056-.055-.056-.055-.056-.055-.056-.055-.055-.055-.055-.055-.055-.055-.055-.055-.054-.055-.055-.054-.054-.055-.054-.054-.054-.054-.054-.054-.053-.054-.054-.053-.054-.053-.053-.053-.053-.053-.053-.052-.053-.052-.053-.052-.052-.052-.052-.051-.052-.051-.052-.051-.051-.051-.051-.05-.051-.051-.05-.05-.05-.05-.05-.05-.05-.049-.049-.049-.049-.049-.048-.049-.048-.048-.048-.048-.047-.048-.047-.047-.047-.047-.047-.046-.046-.046-.046-.046V7v-.045-.045-.045-.045-.045-.044-.044-.044V6.6v-.044-.043-.043-.043-.043-.043V6.3v-.043-.042-.041-.042-.041-.041-.041-.041-.04-.04-.04-.04-.04-.04-.039-.039-.038-.039-.038-.038-.038-.037-.037-.037-.037-.037-.036-.036-.035-.036-.035-.035-.035-.034-.035-.033-.034-.034-.033-.032-.033-.032-.032-.032-.032-.03-.032-.03-.03-.03-.03-.03-.03-.028-.029-.028-.028-.028-.028-.027-.027-.026-.026-.026-.026-.025-.025-.025-.024-.024-.024-.023-.024-.022-.023V3.8v-.022-.021-.021-.021-.02-.02-.02-.02-.02-.018-.018-.018-.018-.018-.017-.016-.017-.016-.015-.016-.015-.014-.014-.014-.014-.013-.013-.012-.012-.012-.01-.012-.01H.75zm.75 20.054l-.744.09v.002a.096.096 0 0 0 0 .004 1.206 1.206 0 0 0 .017.108 3.204 3.204 0 0 0 .343.966c.308.555.92 1.193 1.98 1.193v-1.5c-.342 0-.528-.169-.668-.42a1.705 1.705 0 0 1-.184-.538v.004l-.744.091zm1.595 2.363H9.63v-.75-.75h-.002-.001-.001-.001-.001-.002-.001-.002-.003-.002-.002-.002-.005H9.6 9.578 9.56h-.004-.004H3.095v1.5zM17.76 7.989H4.401v1.5h13.358v-1.5zm-4.839 5.53H4.4v1.5h8.52v-1.5zm-3.775 5.53H4.401v1.5h4.744v-1.5zm8.11 3.436l2.618 2.646 1.066-1.055-2.617-2.646-1.067 1.055zm3.76 2.555l4.065-5.674-1.219-.873-4.065 5.673 1.22.874zm6.735-3.778c0 3.59-2.878 6.488-6.41 6.488v1.5c4.376 0 7.91-3.584 7.91-7.988h-1.5zm-6.41 6.488c-3.534 0-6.411-2.897-6.411-6.488h-1.5c0 4.404 3.534 7.988 7.91 7.988v-1.5zm-6.411-6.488c0-3.591 2.877-6.488 6.41-6.488v-1.5c-4.376 0-7.91 3.584-7.91 7.988h1.5zm6.41-6.488c3.533 0 6.411 2.897 6.411 6.488h1.5c0-4.404-3.534-7.988-7.91-7.988v1.5z" svg-fill="#000"/></svg>