<svg xmlns="http://www.w3.org/2000/svg" viewBox="0 0 20 20"><path d="M4.1 10a5.92 5.92 0 0 1 .29-1.85L1 5.57a10.13 10.13 0 0 0 0 8.86l3.37-2.58A5.92 5.92 0 0 1 4.1 10z" fill="#fbbc05"/><path d="M1 5.57l3.39 2.58A5.89 5.89 0 0 1 10 4.1a5.8 5.8 0 0 1 3.69 1.33l2.9-2.9A9.84 9.84 0 0 0 10 0a9.94 9.94 0 0 0-9 5.57z" fill="#ea4335"/><path d="M18.19 8.19H10v3.86h5.36c-.51 2.46-2.6 3.85-5.36 3.85a5.87 5.87 0 0 1-5.61-4.06L1 14.42A10 10 0 0 0 10 20c5 0 9.56-3.65 9.56-10a8.65 8.65 0 0 0-.24-1.81z" fill="#34a853"/><path d="M18.19 8.19H10v3.86h5.36a4.53 4.53 0 0 1-2 3l3.2 2.48a10 10 0 0 0 3-7.51 8.65 8.65 0 0 0-.24-1.81z" fill="#4285f4"/></svg>