<svg viewBox="0 0 20 20" fill="none" xmlns="http://www.w3.org/2000/svg"><path d="M6.4 15.1v.362c0 1.188.58 2.29 1.525 2.91.618.404 1.39.436 2.129.441v0c.8.006 1.643-.02 2.294-.486.874-.626 1.402-1.687 1.402-2.822v-.555m-9.3-8.7l.439-.07a32.35 32.35 0 0 1 10.511.07m.6 2.7c0 4.39-2.686 7.95-6 7.95s-6-3.56-6-7.95C4 4.56 6.686 1 10 1s6 3.56 6 7.95zm-2.118-.385C13.693 12.064 12.027 14.8 10 14.8s-3.693-2.736-3.882-6.235a.812.812 0 0 1 .623-.836C7.475 7.552 8.737 7.3 10 7.3s2.525.252 3.258.429a.812.812 0 0 1 .624.836z" stroke="#000" stroke-width="1.2"/></svg>