<svg viewBox="0 0 20 20" fill="none" xmlns="http://www.w3.org/2000/svg"><path d="M10 10a4.623 4.623 0 0 0 3.244-1.325 4.489 4.489 0 0 0 1.344-3.197V2H5.41v3.478c0 1.2.483 2.35 1.344 3.197A4.623 4.623 0 0 0 9.999 10zm0 0c1.216 0 2.383.476 3.244 1.324a4.489 4.489 0 0 1 1.344 3.197V18H5.41v-3.478c0-1.2.483-2.35 1.344-3.197A4.623 4.623 0 0 1 9.999 10zM4 2h12M4 18h12M5.411 15.218h2.47L10 13.13l2.118 2.087h2.47M6.398 8.26h7.206" stroke="#000" stroke-width="1.2" stroke-linecap="round" stroke-linejoin="round"/></svg>