<svg viewBox="0 0 20 20" fill="none" xmlns="http://www.w3.org/2000/svg"><path d="M2 10.808c.491.226 1.365.257 1.953.069.064-.021.123-.044.177-.069l1.337-.616c.491-.226 1.365-.257 1.953-.069.064.021.124.044.178.069l1.337.616c.49.226 1.365.257 1.953.069.063-.021.123-.044.177-.069l1.337-.616c.491-.226 1.365-.257 1.953-.069.064.021.123.044.178.069l1.337.616c.49.226 1.364.257 1.953.069.063-.021.123-.044.177-.069m-15 3c.43.226 1.194.257 1.709.069.056-.021.108-.044.155-.069l1.17-.616c.43-.226 1.194-.257 1.709-.069.056.021.108.044.155.069l1.17.616c.43.226 1.194.257 1.709.069a1.32 1.32 0 0 0 .155-.069l1.17-.616c.43-.226 1.194-.257 1.709-.069.056.021.108.044.155.069l1.17.616c.43.226 1.194.257 1.709.069a1.32 1.32 0 0 0 .155-.069m-13 3c.368.226 1.024.257 1.465.069.047-.021.092-.044.133-.069l1.003-.616c.368-.226 1.023-.257 1.464-.069.048.021.093.044.133.069l1.003.616c.368.226 1.024.257 1.465.069.048-.021.092-.044.133-.069l1.003-.616c.368-.226 1.023-.257 1.464-.069.048.021.093.044.133.069l1.003.616c.369.226 1.024.257 1.465.069.048-.021.092-.044.133-.069M2 7l2.648-5.143c.528-.82 1.698-1.1 2.613-.627.29.15.532.367.7.627l1.7 2.452c.074-.47.558-.795 1.082-.728.35.045.643.259.764.556L13 7H2z" stroke="#000" stroke-width="1.2" stroke-linecap="round" stroke-linejoin="round"/></svg>