<svg xmlns="http://www.w3.org/2000/svg" viewBox="0 0 20 20"><path fill="none" stroke="#000" d="M13.69 5c0 1.83-2.75 5.42-3.68 6.59a.39.39 0 0 1-.31.15.36.36 0 0 1-.3-.15C8.46 10.4 5.72 6.81 5.72 5a4 4 0 0 1 8 0z"/><path fill="none" stroke="#000" d="M11.2 5a1.5 1.5 0 1 1-.44-1.05A1.5 1.5 0 0 1 11.2 5z"/><path fill="none" stroke="#000" d="M13.59 4.13h1.6a.78.78 0 0 1 .78.7l1.4 13.31a.79.79 0 0 1-.78.86H2.68a.79.79 0 0 1-.59-.26.73.73 0 0 1-.19-.6L3.3 4.83a.78.78 0 0 1 .78-.7h1.73M2.3 14.3H17m-5-5.47h4.39m-13.51 0H7.4M5.72 19l.76-11.74M13.69 19l-.76-11.74"/></svg>