<svg viewBox="0 0 20 20" fill="none" xmlns="http://www.w3.org/2000/svg"><path d="M9.992 12.839a2.861 2.861 0 0 0 0-5.723m0 5.723a2.861 2.861 0 0 1 0-5.723m0 5.723v6.16m0-11.882V1M7.934 12.058l-4.307 4.306M16.356 3.636l-4.303 4.303m-4.11.013L3.627 3.636m12.729 12.728l-4.318-4.318M7.11 9.992H1m18 0h-6.144m-2.864 1.212a1.226 1.226 0 1 0 0-2.453 1.226 1.226 0 0 0 0 2.453zm0 5.722a6.948 6.948 0 1 0 0-13.897 6.948 6.948 0 0 0 0 13.897z" stroke="#000" stroke-width="1.2" stroke-linecap="round" stroke-linejoin="round"/></svg>