<svg xmlns="http://www.w3.org/2000/svg" viewBox="0 0 20 20"><rect x=".42" y="3.33" width="19.17" height="13.33" rx="1.67" svg-fill="none"/><path d="M5.47 8.29A1 1 0 0 0 4.68 8H3.59a.15.15 0 0 0-.15.13L3 10.93a.08.08 0 0 0 .07.1h.55a.15.15 0 0 0 .14-.1l.12-.76A.16.16 0 0 1 4 10h.34a1.12 1.12 0 0 0 1.24-1 .83.83 0 0 0-.11-.71zM4.8 9c0 .4-.35.4-.64.4H4l.11-.73a.09.09 0 0 1 .09-.07h.07c.2 0 .38 0 .48.11A.32.32 0 0 1 4.8 9zm3.13 0H7.4a.09.09 0 0 0-.08.08v.15-.05A.75.75 0 0 0 6.66 9a1.19 1.19 0 0 0-1.16 1 1 1 0 0 0 .19.81.86.86 0 0 0 .66.27 1 1 0 0 0 .72-.3V11a.09.09 0 0 0 .08.1h.48a.14.14 0 0 0 .15-.13l.28-1.79A.1.1 0 0 0 8 9a.07.07 0 0 0-.09 0zm-.72 1a.58.58 0 0 1-.59.53.46.46 0 0 1-.35-.14.45.45 0 0 1-.08-.37.59.59 0 0 1 .58-.53.5.5 0 0 1 .35.14.45.45 0 0 1 .09.37zm3.5-1h-.53a.14.14 0 0 0-.12.07l-.72 1.05L9 9.08A.15.15 0 0 0 8.88 9h-.53a.1.1 0 0 0-.09.09l.57 1.7-.52.77a.09.09 0 0 0 0 .13h.58a.18.18 0 0 0 .13-.06l1.74-2.53a.1.1 0 0 0-.05-.1zm2.53-.72a1 1 0 0 0-.79-.28h-1.09a.14.14 0 0 0-.15.13l-.44 2.79a.08.08 0 0 0 .07.1h.58a.09.09 0 0 0 .1-.09l.13-.79a.14.14 0 0 1 .15-.14h.34a1.12 1.12 0 0 0 1.24-1 .86.86 0 0 0-.14-.71zm-.67.72c-.06.4-.36.4-.65.4h-.16l.11-.74a.1.1 0 0 1 .13-.04.65.65 0 0 1 .48.11.37.37 0 0 1 .05.29zm3.13 0h-.53a.08.08 0 0 0-.09.08v.15-.06a.77.77 0 0 0-.65-.17 1.21 1.21 0 0 0-1.17 1.06 1 1 0 0 0 .19.81.83.83 0 0 0 .66.26 1 1 0 0 0 .73-.3V11a.09.09 0 0 0 .07.11h.49a.15.15 0 0 0 .14-.13l.26-1.84a.09.09 0 0 0-.07-.1zm-.7 1a.57.57 0 0 1-.59.53.42.42 0 0 1-.34-.14.45.45 0 0 1-.09-.37.6.6 0 0 1 .59-.53.48.48 0 0 1 .34.14.42.42 0 0 1 .09.37zm1.94-2h-.53a.09.09 0 0 0-.09.08l-.42 2.85a.08.08 0 0 0 .07.1h.47a.15.15 0 0 0 .15-.12L17 8.1a.09.09 0 0 0-.08-.1z" fill="#fff"/></svg>