<svg viewBox="0 0 23 23" xmlns="http://www.w3.org/2000/svg"><path d="M12.319 21.711l2.74-3.695c.14-.185.065-.335-.166-.335h-1.138a.125.125 0 0 1-.125-.124V15.11a.419.419 0 0 0-.419-.419H10.92a.419.419 0 0 0-.42.419v2.447a.125.125 0 0 1-.123.124H9.238c-.23 0-.305.15-.167.335l2.742 3.695c.14.185.366.185.506 0z" fill="#404040"/><path d="M14.509 19.756l3.954.007c.186 0 .336-.15.336-.336l.01-14.988a.463.463 0 0 0-.119-.287L15.798 1.27a.45.45 0 0 0-.282-.12l-9.876.002a.333.333 0 0 0-.334.335v6.161c0 .092.075.168.167.168H6a.168.168 0 0 0 .168-.168V2.115c0-.069.055-.124.124-.124h8.53c.068 0 .123.055.123.124l.002 2.54a.332.332 0 0 0 .332.335h2.562c.069 0 .125.055.125.124v13.684a.125.125 0 0 1-.125.125l-2.715-.002a.273.273 0 0 0-.198.1l-.469.635c-.04.055-.018.1.05.1zM5.64 19.763l3.96-.007c.07 0 .092-.045.052-.1l-.47-.636a.276.276 0 0 0-.197-.1l-2.694.002a.124.124 0 0 1-.124-.124v-3.965a.168.168 0 0 0-.168-.167h-.525a.169.169 0 0 0-.169.167l.001 4.594a.333.333 0 0 0 .334.336zM6.836 10.937a.28.28 0 0 0 .13-.091.236.236 0 0 0 .045-.144.22.22 0 0 0-.062-.164.295.295 0 0 0-.172-.085 3.343 3.343 0 0 0-.441-.017h-.153v.537h.195c.32 0 .427-.025.458-.036z" fill="#404040"/><path d="M10.215 10.937a.285.285 0 0 0 .13-.091.237.237 0 0 0 .044-.144c0-.07-.02-.122-.061-.164a.294.294 0 0 0-.172-.085 3.347 3.347 0 0 0-.441-.017h-.153v.537h.195c.32 0 .427-.025.458-.036z" fill="#404040"/><path d="M4.192 8.859l.002 4.763a.338.338 0 0 0 .339.336h10.814a.335.335 0 0 0 .336-.336V8.859a.336.336 0 0 0-.336-.336H4.527a.333.333 0 0 0-.335.336zm7.631.745h2.844v.91h-.884v2.325H12.71v-2.325h-.887v-.91zm-3.237.037h1.208c.415 0 .683.018.819.051.218.05.404.166.551.339.148.173.22.396.22.662 0 .204-.042.381-.126.526a.972.972 0 0 1-.326.341c-.128.082-.26.135-.396.163-.168.03-.403.044-.71.044h-.264v1.11h-.975V9.64zm-3.378 0h1.207c.416 0 .683.018.82.051.218.05.403.166.55.339.148.173.221.396.221.662a.97.97 0 0 1-.453.867c-.127.082-.26.135-.396.163a4.23 4.23 0 0 1-.71.044h-.264v1.11h-.975V9.64z" fill="#404040"/></svg>