<svg viewBox="0 0 20 20" fill="none" xmlns="http://www.w3.org/2000/svg"><path d="M1 17.826l.678.893a.783.783 0 0 0 1.202 0l.754-.905a.783.783 0 0 1 1.202 0l.754.905a.783.783 0 0 0 1.202 0l.755-.905a.783.783 0 0 1 1.202 0l.754.905a.783.783 0 0 0 1.202 0l.754-.905a.783.783 0 0 1 1.202 0l.755.905a.783.783 0 0 0 1.202 0l.754-.905a.783.783 0 0 1 1.202 0l.754.905a.783.783 0 0 0 1.203 0l.469-.562m-9.783-2.58a6.621 6.621 0 0 1 3.912-1.273H19M9.697 2.478L9.184 1m2.572 7.391l2.057 5.914m4.216-8.097a.782.782 0 0 0 .354-1.228 7.825 7.825 0 0 0-13.94 4.852.783.783 0 0 0 1.04.743L18.03 6.208z" stroke="#000" stroke-width="1.2" stroke-linecap="round" stroke-linejoin="round"/></svg>