<svg viewBox="0 0 20 20" xmlns="http://www.w3.org/2000/svg"><path d="M8.667 3.442V2.125m0 0C8.667 1.504 9.264 1 10 1s1.333.504 1.333 1.125v1.317M8.667 2.125h-1.5M14 17.313c0 .931-.895 1.687-2 1.687H8c-1.105 0-2-.756-2-1.688V6.626C6 4.761 7.79 3.25 10 3.25s4 1.511 4 3.375v10.688z" fill="none" stroke="#000" stroke-width="1.5" stroke-linecap="round" stroke-linejoin="round"/><g fill="#000"><path d="M9.873 10.464c.617 0 1.091.153 1.423.458.33.306.497.745.497 1.316 0 .57-.166 1.01-.497 1.315-.332.306-.808.459-1.428.459-.62 0-1.094-.153-1.42-.459-.328-.307-.492-.748-.492-1.32 0-.573.165-1.01.495-1.313.33-.304.803-.456 1.422-.456zm0 2.72c.416 0 .73-.08.94-.237.211-.159.317-.395.317-.71 0-.63-.42-.945-1.257-.945-.84 0-1.26.314-1.26.94 0 .315.107.552.32.712.21.16.524.24.94.24zM11.742 8.263v1.75h-.384l-.662-.613-.23-.21a1.94 1.94 0 0 0-.205-.163.92.92 0 0 0-.204-.105.65.65 0 0 0-.223-.038.264.264 0 0 0-.205.08.3.3 0 0 0-.073.213c0 .094.023.184.07.271.046.087.112.178.197.273l-.355.3a2.371 2.371 0 0 1-.139-.168 1.118 1.118 0 0 1-.234-.708c0-.125.018-.237.052-.336a.72.72 0 0 1 .148-.255.62.62 0 0 1 .23-.16.78.78 0 0 1 .305-.057c.103 0 .2.017.295.053.093.036.184.085.275.146.089.062.178.134.267.216.088.081.178.168.27.26l.316.315h.025V8.263h.464z"/></g></svg>