<svg viewBox="0 0 20 20" fill="none" xmlns="http://www.w3.org/2000/svg"><path d="M8.667 3.442V2.125m0 0C8.667 1.504 9.264 1 10 1s1.333.504 1.333 1.125v1.317M8.667 2.125H7m7 15.188c0 .931-.895 1.687-2 1.687H8c-1.105 0-2-.756-2-1.688V6.626C6 4.761 7.79 3.25 10 3.25s4 1.511 4 3.375v10.688z" stroke="#000" stroke-width="1.5" stroke-linecap="round" stroke-linejoin="round"/><g fill="#000"><path d="M11.443 14.386V16H8.64v-1.614h.487v1.02h.615v-.949h.487v.949h.722v-1.02h.49zM11.443 12.085l-.667.203v1.021l.667.204v.64l-2.813-.99v-.726l2.813-.992v.64zm-1.165.345l-1.026.318c-.079.023-.141.04-.187.05.163.042.568.162 1.213.362v-.73zM11.443 8.604v.756l-2.12 1.218v.018c.375-.025.642-.037.801-.037h1.319v.531H8.64v-.75l2.099-1.216V9.11c-.364.02-.622.03-.773.03H8.641v-.536h2.802zM10.349 7.504l-1.049.69v-.663l.683-.416-.683-.42v-.662l1.049.697L11.443 6v.665l-.734.45.734.453v.663l-1.094-.727z"/></g></svg>