<svg viewBox="0 0 20 20" xmlns="http://www.w3.org/2000/svg"><path d="M10.587 3.348a2.348 2.348 0 1 1-4.695 0 2.348 2.348 0 0 1 4.695 0zm0 0H14.5a3.13 3.13 0 0 1 3.13 3.13v4.696M7.848 3.348l.783-.783m8.999 8.609a1.174 1.174 0 0 1 0 2.348m0-2.348a1.174 1.174 0 0 0 0 2.348m0 0v2.739M7.457 9.609a3.13 3.13 0 1 0-6.26 0v8.607c0 .433.35.783.782.783h4.695c.432 0 .783-.35.783-.782V9.608zm7.825 0a3.13 3.13 0 1 0-6.26 0v8.607c0 .433.35.783.782.783H14.5c.432 0 .782-.35.782-.782V9.608z" stroke="#000" stroke-width="1.5" stroke-linecap="round" stroke-linejoin="round" fill="none" /><path d="M5.467 15.703v.569H3.259V17h-.473v-2.025h.473v.728h2.208zM5.467 13.223l-2.104.646v.017c.428-.024.714-.035.857-.035h1.247v.508H2.786v-.774l2.05-.635v-.01l-2.05-.674v-.774h2.68v.53H4.199c-.06 0-.13 0-.207-.002a77.334 77.334 0 0 1-.624-.025v.016l2.1.692v.52zM4.42 10.44l-1.003.66v-.635l.652-.398-.652-.401V9.03L4.42 9.7 5.467 9v.636l-.702.431.702.433v.635L4.42 10.44z" /></svg>