<svg viewBox="0 0 20 20" xmlns="http://www.w3.org/2000/svg"><path d="M11.864 14.104h2.254c2.309-.068 4.143-1.982 4.132-4.314v-3.7m-6.386 8.014A1.887 1.887 0 0 1 9.985 16a1.887 1.887 0 0 1-1.878-1.896m3.757 0a1.887 1.887 0 0 0-1.879-1.896 1.887 1.887 0 0 0-1.878 1.896M1.75 6.09v3.7c-.01 2.332 1.823 4.246 4.132 4.314h2.225m1.878-5.831c-.01 1.494 1.151 2.73 2.63 2.797h1.878a2.015 2.015 0 0 0 1.879-2.039v-.758a3.308 3.308 0 0 0-1.006-2.358 3.245 3.245 0 0 0-2.375-.913H9.985m0 3.27v-3.27m0 3.27c.011 1.495-1.15 2.731-2.63 2.798H5.477A2.017 2.017 0 0 1 3.6 9.03v-.758a3.31 3.31 0 0 1 1.005-2.357 3.247 3.247 0 0 1 2.376-.914h3.005" stroke="#000" stroke-width="1.2" stroke-linecap="round" stroke-linejoin="round" fill="none"/></svg>