<svg xmlns="http://www.w3.org/2000/svg" viewBox="0 0 20 20"><rect x=".42" y="3.33" width="19.17" height="13.33" rx="1.67" svg-fill="none"/><path d="M8.2 7.9l-1.65 4.22H5.47l-.8-3.35a.44.44 0 0 0-.24-.37 3.69 3.69 0 0 0-1-.36v-.13h1.72a.5.5 0 0 1 .47.43l.43 2.45 1-2.87zm4.21 2.84c0-1.12-1.41-1.18-1.41-1.67 0-.16.13-.32.43-.36a1.75 1.75 0 0 1 1 .19l.16-.9a2.37 2.37 0 0 0-.95-.19c-1 0-1.72.57-1.72 1.39a1.35 1.35 0 0 0 .89 1.15c.38.21.53.34.53.53s-.32.41-.61.41A2 2 0 0 1 9.68 11l-.19 1a2.84 2.84 0 0 0 1.15.22c1.06 0 1.76-.56 1.76-1.44zm2.65 1.38H16l-.82-4.22h-.86a.46.46 0 0 0-.43.31l-1.53 3.91h1.07l.21-.62h1.3zm-1.15-1.5L14.44 9l.33 1.57zM9.64 7.9l-.84 4.22h-1l.84-4.22z" fill="#fff"/></svg>