<svg viewBox="0 0 20 20" xmlns="http://www.w3.org/2000/svg"><path d="M8.462 10.308h3.077M5.385 7.846H4.154a.615.615 0 0 0-.616.616v3.077c0 .34.276.615.616.615h1.23M3.539 10h-.615m11.692-2.154h1.231c.34 0 .616.276.616.616v3.077c0 .34-.276.615-.616.615h-1.23M16.461 10h.615M6.385 14h1.077a1 1 0 0 0 1-1V7a1 1 0 0 0-1-1H6.385a1 1 0 0 0-1 1v6a1 1 0 0 0 1 1zm6.154 0h1.076a1 1 0 0 0 1-1V7a1 1 0 0 0-1-1H12.54a1 1 0 0 0-1 1v6a1 1 0 0 0 1 1z" fill="none" stroke="#000" stroke-width="1.2" stroke-linecap="round" stroke-linejoin="round"/></svg>