<svg xmlns="http://www.w3.org/2000/svg" viewBox="0 0 30 30"><path d="M5.675 17.416l-4.26 7.3c-.164.282-.034.468.288.414l3.988-.676 1.382 3.8c.112.307.34.33.507.048l3.64-6.114M24.325 17.416l4.26 7.3c.164.282.034.468-.288.414l-3.988-.676-1.382 3.8c-.112.307-.34.33-.507.048l-3.64-6.114" fill="none" stroke="#000" stroke-width="1.5" stroke-linecap="round" stroke-linejoin="round"/><path clip-rule="evenodd" d="M15 22.876c5.903 0 10.688-4.785 10.688-10.688C25.688 6.285 20.903 1.5 15 1.5 9.097 1.5 4.312 6.285 4.312 12.188c0 5.903 4.785 10.688 10.688 10.688z" fill="none" stroke="#000" stroke-width="1.5" stroke-linecap="round" stroke-linejoin="round"/><path d="M19.679 9.255l-5.605 5.605a.89.89 0 0 1-1.26 0l-2.043-2.043" fill="none" stroke="#000" stroke-width="1.5" stroke-linecap="round" stroke-linejoin="round"/></svg>