<svg viewBox="0 0 20 20" fill="none" xmlns="http://www.w3.org/2000/svg"><path d="M19 18.68c-1.956.407-3.177-1.55-3.177-1.55a3.447 3.447 0 0 1-2.834 1.61 2.99 2.99 0 0 1-2.597-1.61 4.134 4.134 0 0 1-3.07 1.61 3.6 3.6 0 0 1-2.831-1.61s-1.565 1.99-3.487 1.581m17.997-5.162C17.044 13.957 15.823 12 15.823 12a3.448 3.448 0 0 1-2.834 1.61A2.991 2.991 0 0 1 10.392 12a4.134 4.134 0 0 1-3.07 1.61A3.6 3.6 0 0 1 4.491 12s-1.565 1.99-3.487 1.58M19.001 8.55C17.044 8.957 15.823 7 15.823 7a3.448 3.448 0 0 1-2.834 1.61A2.991 2.991 0 0 1 10.392 7a4.134 4.134 0 0 1-3.07 1.61A3.6 3.6 0 0 1 4.491 7S2.926 8.99 1.004 8.58M19.001 3.55C17.044 3.957 15.823 2 15.823 2a3.448 3.448 0 0 1-2.834 1.61A2.991 2.991 0 0 1 10.392 2a4.134 4.134 0 0 1-3.07 1.61A3.6 3.6 0 0 1 4.491 2S2.926 3.99 1.004 3.58" stroke="#000" stroke-width="1.2" stroke-linecap="round" stroke-linejoin="round"/></svg>