<svg viewBox="0 0 20 20" fill="none" xmlns="http://www.w3.org/2000/svg"><g clip-path="url(#clip0)"><path d="M11.306 11.6V9.597m-5.89 1.163l-2.623.874m16.119-8.04c-2.002.416-3.25-1.585-3.25-1.585a3.522 3.522 0 0 1-2.899 1.646 3.06 3.06 0 0 1-2.657-1.646 4.228 4.228 0 0 1-3.142 1.646A3.682 3.682 0 0 1 4.07 2.01S2.463 4.045.5 3.627M16.51 13a2.001 2.001 0 1 0 0-4.002 2.001 2.001 0 0 0 0 4.002zM1.552 9.598a.4.4 0 0 0-.266.7l4.7 4.174a4.396 4.396 0 0 0 2.946 1.13h3.53c.336-.001.666.081.961.24l3.683 2.01a1.201 1.201 0 0 0 1.15-2.108l-3.686-2.006a4.419 4.419 0 0 0-2.107-.538H8.933c-.495 0-.972-.182-1.34-.513L4.551 10c-.293-.258-.67-.4-1.06-.4l-1.938-.002zm11.355 1a1 1 0 0 1-1 1.001H8.904a.4.4 0 0 1-.4-.4V10a.4.4 0 0 1 .4-.401h3.002a1 1 0 0 1 1 1z" stroke="#000" stroke-width="1.5" stroke-linecap="round" stroke-linejoin="round"/></g><defs><clipPath id="clip0"><path fill="#fff" d="M0 0h20v20H0z"/></clipPath></defs></svg>