<svg viewBox="0 0 20 20" fill="none" xmlns="http://www.w3.org/2000/svg"><path d="M9 15.577l-4.852-4.853-2.154 2.157a.762.762 0 0 0 0 1.079l3.774 3.773a.762.762 0 0 0 1.078 0L9 15.577zm0 0c1.08 1.078 2.907.089 4.584-.27a29.799 29.799 0 0 0 2.966-.807c.81-.269 1.485-.784 1.43-1.625a1.525 1.525 0 0 0-1.622-1.421l-2.505.348 4.041-4.04a1.144 1.144 0 0 0-1.618-1.618l-2.692 2.693m2.695-2.695l.54-.54A1.144 1.144 0 1 0 15.2 3.985l-.54.539m0 0L11.967 7.22m2.696-2.696a1.145 1.145 0 0 0-1.618-1.62l-2.696 2.698m1.618-1.617a1.144 1.144 0 1 0-1.618-1.615L5.496 7.22c-1.369 1.373-1.673 2.36-1.348 3.507" stroke="#000" stroke-width="1.2" stroke-linecap="round" stroke-linejoin="round"/></svg>