<svg viewBox="0 0 20 20" fill="none" xmlns="http://www.w3.org/2000/svg"><path d="M19 18.913c-1.956.407-3.177-1.55-3.177-1.55a3.444 3.444 0 0 1-2.834 1.61 3.606 3.606 0 0 1-2.833-1.61 3.447 3.447 0 0 1-2.833 1.61 3.606 3.606 0 0 1-2.83-1.61S2.92 19.353 1 18.945m18-3.888c-1.956.406-3.177-1.55-3.177-1.55a3.444 3.444 0 0 1-2.834 1.61 3.606 3.606 0 0 1-2.833-1.61 3.447 3.447 0 0 1-2.833 1.61 3.605 3.605 0 0 1-2.83-1.61S2.92 15.495 1 15.086M1 4.912h.782m6.261 0h.783M4.913 1v.783m0 6.26v.783m-2.767-6.68l.554.553m4.426 4.427l.554.554m0-5.534l-.554.553M2.7 7.126l-.554.554m2.767-1.202a1.565 1.565 0 1 0 0-3.13 1.565 1.565 0 0 0 0 3.13z" stroke="#000" stroke-width="1.2" stroke-linecap="round" stroke-linejoin="round"/></svg>