<svg viewBox="0 0 20 20" fill="none" xmlns="http://www.w3.org/2000/svg"><path d="M17.926 2.585A1.585 1.585 0 0 0 16.341 1H3.66a1.585 1.585 0 0 0-1.585 1.585v11.096a1.585 1.585 0 0 0 1.585 1.585h2.167a45.768 45.768 0 0 0 3.919 3.755.396.396 0 0 0 .509 0 45.647 45.647 0 0 0 3.919-3.755h2.167a1.585 1.585 0 0 0 1.585-1.585V2.585z" stroke="#000" stroke-width="1.2" stroke-linecap="round" stroke-linejoin="round"/><path d="M5.5 12.667c.007-.62.136-1.23.38-1.8.265-.531 1.374-.9 2.768-1.415.379-.14.314-1.124.148-1.307A2.777 2.777 0 0 1 8.07 5.99 1.817 1.817 0 0 1 9.833 4a1.817 1.817 0 0 1 1.764 1.99 2.778 2.778 0 0 1-.724 2.154c-.166.183-.228 1.167.148 1.307 1.393.515 2.503.884 2.769 1.415.242.57.37 1.182.377 1.8H5.5z" stroke="#000" stroke-width="1.2" stroke-linecap="round" stroke-linejoin="round"/></svg>