<svg viewBox="0 0 20 20" fill="none" xmlns="http://www.w3.org/2000/svg"><g clip-path="url(#clip0)"><path d="M13.043 16.28s-.434-2.265-.87-4.984c-.434-2.72-.434-3.625 2.61-5.438 1.467-.922 2.257-2.675 2-4.441a.45.45 0 0 0-.303-.396.424.424 0 0 0-.466.144 4.86 4.86 0 0 1-2.536 1.52C10.435 3.593 10 5.859 10 5.859s-.435-2.266-3.478-3.172a4.86 4.86 0 0 1-2.532-1.52.424.424 0 0 0-.466-.143.45.45 0 0 0-.303.396c-.257 1.765.532 3.519 2 4.44 3.043 1.813 3.043 2.72 2.609 5.439-.435 2.719-.87 4.985-.87 4.985M20 18.69c-.408.2-.853.306-1.304.309a3.255 3.255 0 0 1-2.174-.906 3.06 3.06 0 0 1-4.348 0A3.254 3.254 0 0 1 10 19a3.254 3.254 0 0 1-2.174-.906A3.254 3.254 0 0 1 5.652 19a3.254 3.254 0 0 1-2.174-.906A3.254 3.254 0 0 1 1.304 19 2.991 2.991 0 0 1 0 18.69" stroke="#000" stroke-width="1.2" stroke-linecap="round" stroke-linejoin="round"/></g><defs><clipPath id="clip0"><path fill="#fff" d="M0 0h20v20H0z"/></clipPath></defs></svg>