<svg viewBox="0 0 20 20" fill="none" xmlns="http://www.w3.org/2000/svg"><path d="M3.195 2.38s4.429.64 5.966 2.394c2.46 2.806.287 4.737 2.747 7.543 1.537 1.753 5.966 2.395 5.966 2.395M1 4.285S5.537 5.802 6.36 7.82c1.319 3.23-1.48 4.603-.16 7.833.823 2.019 4.3 3.68 4.3 3.68M16 7.535V9m2.853-2.237l-1.111-1.236c.48.436 1.177-.179.74-.632l-1.398-1.547c.511.444 1.188-.205.694-.67L16.001 1l-1.776 1.677c-.495.466.183 1.115.694.671l-1.4 1.544c-.436.453.261 1.07.742.632L13.149 6.76a.415.415 0 0 0 .007.643.564.564 0 0 0 .36.13h4.972c.288-.004.517-.21.512-.462a.424.424 0 0 0-.146-.308zM1.089 12c-.05 0-.089-.06-.089-.133v-.009C1.05 10.693 1.702 10 2.5 10s1.451.692 1.5 1.858c.003.074-.034.137-.083.142H1.09z" stroke="#000" stroke-width="1.2" stroke-linecap="round" stroke-linejoin="round"/></svg>