<svg viewBox="0 0 20 20" fill="none" xmlns="http://www.w3.org/2000/svg"><path d="M19 15.46c-1.96.408-3.177-1.549-3.177-1.549a3.443 3.443 0 0 1-2.834 1.61 2.991 2.991 0 0 1-2.598-1.61 4.468 4.468 0 0 1-1.174 1.05M1 17.896h18m-16.078 0L7.261 5.374m0 0v12.522m0-12.522c0-1.956-3.052-4.227-5.87-2.349l5.197 2.08m.673.27c0-1.957 3.052-4.228 5.87-2.35L7.937 5.1m-.677.23c2.294-1.13 6.72 1.13 6.15 5.522L7.26 5.33zm0 0C4.967 4.2.54 6.46 1.11 10.852l6.15-5.522zM5.635 16.195h1.626m-1.234-1.566H7.26" stroke="#000" stroke-width="1.2" stroke-linecap="round" stroke-linejoin="round"/></svg>