<svg viewBox="0 0 20 20" xmlns="http://www.w3.org/2000/svg"><path d="M8.667 3.442V2.125m0 0C8.667 1.504 9.264 1 10 1s1.333.504 1.333 1.125v1.317M8.667 2.125H6.875M14 17.313c0 .931-.895 1.687-2 1.687H8c-1.105 0-2-.756-2-1.688V6.626C6 4.761 7.79 3.25 10 3.25s4 1.511 4 3.375v10.688z" fill="none" stroke="#000" stroke-width="1.5" stroke-linecap="round" stroke-linejoin="round" /><path d="M11.348 12.867c0 .368-.133.659-.4.87-.264.213-.632.319-1.104.319-.435 0-.82-.082-1.155-.246v-.803c.275.122.507.209.697.26.192.05.367.074.525.074.19 0 .335-.036.435-.108.102-.073.153-.18.153-.324 0-.08-.022-.15-.067-.212a.731.731 0 0 0-.198-.181 4.913 4.913 0 0 0-.527-.277 2.506 2.506 0 0 1-.56-.337 1.268 1.268 0 0 1-.3-.377 1.075 1.075 0 0 1-.11-.502c0-.361.12-.645.365-.851.245-.207.584-.31 1.015-.31.212 0 .414.025.606.075.193.05.395.121.605.212l-.279.673a4.048 4.048 0 0 0-.541-.187 1.723 1.723 0 0 0-.419-.053c-.163 0-.289.038-.376.114a.377.377 0 0 0-.132.299c0 .076.018.143.053.2.036.057.092.111.168.165.078.053.261.147.55.285.38.182.642.366.784.55.141.182.212.406.212.672z" /></svg>