<svg viewBox="0 0 20 20" fill="none" xmlns="http://www.w3.org/2000/svg"><path d="M8.462 10.308h3.077M6 13V7m0 6a1 1 0 1 0 2 0V7a1 1 0 0 0-2 0m0 6a1 1 0 1 1-2 0V7a1 1 0 0 1 2 0m-2 .846h-.846a.615.615 0 0 0-.616.616v3.077c0 .34.276.615.616.615H4M2.538 10h-.615M14 13V7m0 6a1 1 0 1 1-2 0V7a1 1 0 1 1 2 0m0 6a1 1 0 1 0 2 0V7a1 1 0 1 0-2 0m2 .846h.846c.34 0 .616.276.616.616v3.077c0 .34-.276.615-.616.615H16M17.462 10h.615" stroke="#000" stroke-width="1.2" stroke-linecap="round" stroke-linejoin="round"/></svg>