<svg viewBox="0 0 20 20" fill="none" xmlns="http://www.w3.org/2000/svg"><path d="M8.131 2.041L8.787 1h2.426l.623 1.041m-3.705 0l-1.836.52m1.836-.52C8.46 2.671 9.181 3 10 3c.82 0 1.541-.329 1.836-.959m-5.54.52L2 9.22l1.246.52L6.918 5.63m-.623-3.068l.623 3.068m0 0l.426 2.575c.131.685.131 1.37.033 2.028l-.492 8.22 1.246.52 1.902-8.22m0 0L11.869 19l1.246-.52-.492-8.22a6.18 6.18 0 0 1 .033-2.055l.393-2.575m-3.016 5.124c1.082 0 1.738-1.809 1.934-2.384.164-.411.984-2.712-.033-4-.59-.795-1.508-.87-1.934-.87-.393 0-1.41.075-2 .87-.984 1.315-.197 3.507 0 4 .197.466.918 2.41 2.033 2.384zm1.803-8.713l1.803.493m0 0L18 9.22l-1.246.52L13.05 5.63m.59-3.096l-.59 3.096M3.213 8.205l.623.494m12.295 0l.623-.494" stroke="#000" stroke-width="1.2" stroke-miterlimit="10" stroke-linecap="round" stroke-linejoin="round"/></svg>