<svg viewBox="0 0 20 20" fill="none" xmlns="http://www.w3.org/2000/svg"><path d="M8.405 2.012L8.95 1h1.954l.69 1.012m-3.19 0l-1.61.506m1.61-.506C8.462 2.065 8.879 3 10 3c1.207 0 1.595-.935 1.595-.988m-4.8.506L3 8.482l1.092.506 3.22-2.982.374 2.13c.115.56.144 1.145.115 1.73l-.245 4.315-.244 4.313L8.405 19l1.61-8.494m-3.22-7.988c0 .559 1.638 2.476 3.22 2.476m0 5.512l1.61 8.467 1.063-.532-.489-8.627c-.029-.56 0-1.145.115-1.705l.374-2.13 3.22 3.036L17 8.509l-3.766-5.991m-3.22 7.988V4.994m1.582-2.982l1.638.506m0 0c0 .532-1.265 2.476-3.22 2.476" stroke="#000" stroke-width="1.2" stroke-miterlimit="10" stroke-linecap="round" stroke-linejoin="round"/></svg>