<svg width="80" height="80" viewBox="0 0 80 80" fill="none" xmlns="http://www.w3.org/2000/svg">
<circle cx="40" cy="40" r="40" fill="#B8B8B8"/>
<path fill-rule="evenodd" clip-rule="evenodd" d="M25.5996 52.974C25.6596 51.2121 26.0861 49.4819 26.8518 47.8939C27.7346 46.1284 31.4222 44.905 36.0515 43.1908C37.3037 42.7262 37.0983 39.458 36.5436 38.8482C35.2413 37.417 34.1394 35.7378 34.1394 31.687C34.1394 27.5987 36.8066 25.4262 39.9996 25.4262C43.1927 25.4262 45.8598 27.5987 45.8598 31.687C45.8598 35.7378 44.7566 37.417 43.4556 38.8482C42.9009 39.458 42.6955 42.73 43.9477 43.1908C48.5808 44.905 52.2647 46.1284 53.1474 47.8939C53.9132 49.4819 54.3396 51.2121 54.3996 52.974H25.5996Z" stroke="white" stroke-width="1.5" stroke-linecap="round" stroke-linejoin="round"/>
</svg>
