<svg viewBox="0 0 49 70" xmlns="http://www.w3.org/2000/svg"><g fill="none" fill-rule="evenodd"><g transform="translate(.807 .207)"><ellipse fill="#FFF" cx="23.681" cy="23.717" rx="23.681" ry="23.717"/><path d="M26.045 38.804H21.16c-.558 0-.808.421-.545.94l2.023 3.809c.446.927 1.274.986 1.891.059l2.062-3.874c.263-.54.02-.934-.545-.934h-.001zm4.38-16.548l-.433-4.42a1.222 1.222 0 0 0-1.169-1.012H18.388c-.58.016-1.07.44-1.169 1.013l-.296 3.019c.145.354.22.734.217 1.118 0 .125.565-.224 1.484-.112 1.42.304 2.799.778 4.105 1.414h6.731a.958.958 0 0 0 .965-1.02zM21.015 8.76h5.188c.565 0 .808-.427.551-.947l-2.12-4.038c-.487-.986-1.61-.934-2.109.08L20.457 7.8c-.257.533-.007.96.558.96zm8.393 21.494a1.13 1.13 0 0 0 .531-.612s.31-.598.086-.789a34.647 34.647 0 0 0-3.632 1.802c-.203.244 1.885.283 2.371 0 .217-.105.493-.309.644-.4v-.001zm-4.571-6.09l.867.342c1.615.657 1.674 1.512 1.93 1.565.736.158 1.682-.954 2.516-1.631a.952.952 0 0 0-.657-.283l-4.656.007zM26.59 9.517h-5.976c-.605.03-1.14.402-1.379.96l-1.425 4.479a.744.744 0 0 0 .755.987H28.64a.742.742 0 0 0 .755-.987l-1.425-4.479a1.583 1.583 0 0 0-1.379-.96h-.001zm-1.438 22.796c.204.085.092-.171 2.069-.494.952.112 1.188-.15 1.267-.256h-3.336c-.355.42-.197.664 0 .75zm-4.393 5.702h5.693c.605-.03 1.141-.4 1.386-.954l.84-2.552c-.38.171-.814.382-1.313.658-3.191 1.657-4.472.816-5.523 0-1.05-.815-2.673-3.216-2.902-3.46a1.2 1.2 0 0 0-.355-.157.729.729 0 0 0-.696.98l1.484 4.511c.24.563.776.94 1.386.974zm19.005-21.244c-.801 0-.598.803-.598.803.407 1.566.65 3.17.73 4.788 0 0 .163.842.82.861h4.742c.906 0 .965-1.026.965-1.026a19.297 19.297 0 0 0-.755-4.44 1.675 1.675 0 0 0-1.425-.986h-4.48.001zm5.674 7.34h-4.722a.775.775 0 0 0-.696.388 26.19 26.19 0 0 1 2.955 3.354c1.123 1.56.716 1.822.447 2.131-.29.275-.626.498-.992.658h1.793a1.504 1.504 0 0 0 1.405-1.046 19.3 19.3 0 0 0 .808-4.452.968.968 0 0 0-.998-1.033zm-9.621-13.858a16.628 16.628 0 0 1 2.528 4.75c.217.501.696.84 1.242.874H44a.722.722 0 0 0 .768-1.066 16.446 16.446 0 0 0-2.935-4.65 3.032 3.032 0 0 0-1.603-.71h-3.717c-1.169.013-.696.802-.696.802zm-8.688-7.695a21.184 21.184 0 0 1 6.705 5.262c1.077 1.092 1.97.894 1.97.894h3.546s1.36 0 .572-.874c-3.225-3.394-7.395-5.038-12.117-5.867-1.221-.151-1.537.125-.676.585zm.676 5.255c.156.583.716.961 1.314.888h3.415c1.175 0 .17-.92.17-.92a20.36 20.36 0 0 0-6.37-4.775c-.722-.277-1.018-.25-.722.236.86 1.263 1.53 3.302 2.193 4.571zm7.04 2.48a1.346 1.346 0 0 0-1.425-.835h-3.94c-.906 0-.46.828-.46.828a34.895 34.895 0 0 1 1.537 4.716c.126.505.57.865 1.09.881h5.188c.978 0 .558-.888.558-.888a22.885 22.885 0 0 0-2.548-4.702zm2.423 22.046s.388-.842-.518-.829h-2.91c.296.158.539.283.657.336.855.33 1.733.596 2.627.796l.144-.303zm-7.88 5.623h3.631a1.917 1.917 0 0 0 1.53-.835c.576-.788 1.1-1.612 1.57-2.466a31.531 31.531 0 0 0-4.157-.658 5.036 5.036 0 0 0-1.97.04 24.584 24.584 0 0 1-1.097 3.077s-.656.842.493.842zm8.045-10.556c-.697-1.756-2.05-1.756-3.172-1.466-1.123.35-2.129 1-2.91 1.88a11.123 11.123 0 0 0-.328 1.79c.004.102.021.204.053.302.286.392.72.649 1.201.71h4.827c.368.02.717-.162.913-.473v-.132a5.887 5.887 0 0 0-.584-2.61v-.001zm-1.57-5.946c1 .38 1.914.957 2.686 1.698a.697.697 0 0 0 .447-.796 22.972 22.972 0 0 0-.743-4.782.985.985 0 0 0-1.017-.809h-5.451c-.755 0-.657.81-.657.81.26 1.58.41 3.178.453 4.78 0 0 .237 1.033 1.038 1.027h.755a.973.973 0 0 0 .657-.658 1.533 1.533 0 0 1 1.832-1.27zm3.264 17.285H35.58s-.9-.197-1.97.894a21.197 21.197 0 0 1-6.712 5.262c-.88.46-.545.737.657.572 4.715-.822 8.892-2.466 12.123-5.847.807-.894-.552-.881-.552-.881h.001zm-6.653.921s.999-.921-.17-.921h-3.409a1.208 1.208 0 0 0-1.313.888c-.657 1.27-1.314 3.288-2.2 4.564-.289.487.033.52.729.244a20.36 20.36 0 0 0 6.363-4.775zm-20.719-2.473a23.616 23.616 0 0 1-2.627-4.815.985.985 0 0 0-1.064-.809h-4.65c-1.017.033-.721 1.08-.721 1.08a21.204 21.204 0 0 0 2.718 4.537c.282.584.909.92 1.55.829h4.597c.742.006.197-.822.197-.822zM1.904 23.276h3.763v-.099a6.416 6.416 0 0 0-.978-1.841c-.23-.296.118-.605 0-.71-1.011-.935-.296-1.658-.092-2.263.193-.5.343-1.015.447-1.54H3.146c-.621.04-1.17.42-1.425.987a19.297 19.297 0 0 0-.782 4.44s.06 1 .965 1.026zm5.806 7.399c.906 0 .716-1.158.716-1.158a1.922 1.922 0 0 0-.48-1.111 3.947 3.947 0 0 1-1.753-2.697 12.915 12.915 0 0 0-.283-1.545H1.97a.965.965 0 0 0-1.005 1.02c.095 1.51.366 3.004.808 4.452.195.61.754 1.029 1.392 1.046l4.545-.007zM3.369 15.936h1.727c-.13-.76.084-1.539.585-2.124.617-.934 2.534-.737 3.126-.744a3.524 3.524 0 0 0 1.142-.197c.46-.906 1-1.77 1.616-2.578 0 0 .473-.796-.696-.796H7.145c-.6.041-1.168.293-1.602.71a16.446 16.446 0 0 0-2.916 4.664.724.724 0 0 0 .742 1.065zM8.202 8.76h3.37s.899.198 1.97-.894a21.196 21.196 0 0 1 6.718-5.235c.886-.46.545-.737-.657-.572-4.742.802-8.918 2.446-12.15 5.833-.787.875.75.869.75.869l-.001-.001zm6.476-.92s-1.005.92.17.92h3.415a1.208 1.208 0 0 0 1.314-.887c.656-1.27 1.313-3.289 2.2-4.565.289-.486-.033-.52-.73-.243a20.36 20.36 0 0 0-6.37 4.775h.001zm3.231 1.677h-3.94a1.346 1.346 0 0 0-1.426.835 22.768 22.768 0 0 0-1.405 2.263c1.123.065.545 1.243 1.15.96 1.424-.658 1.74-1.316 1.904-.822.742 2.269-.821 2.723-1.215 2.92a1.242 1.242 0 0 0-.408.27h3.192c.52-.017.964-.377 1.09-.882a34.83 34.83 0 0 1 1.537-4.715s.427-.83-.48-.83l.001.001zm-5.077 27.669c.347.504.913.811 1.524.829h3.638c1.15 0 .499-.842.499-.842a34.96 34.96 0 0 1-1.609-4.801s-.04-.803-1.057-.803h-5.188c-.907 0-.52.83-.52.83a22.99 22.99 0 0 0 2.713 4.787zm-2.548-6.511h4.748a33.687 33.687 0 0 1-4.8-1.625c-.716-.394-1.104-.453-1.13-.295a2.97 2.97 0 0 0 .118 1.052 1.04 1.04 0 0 0 1.064.868zM9.063 18.836h-.217a23.006 23.006 0 0 0-.453 3.526c.07.207.179.4.322.565.13.145 1.136.895 1.497.355.15-.223.085-.17.079-.243 0-.414-.52-.5-.539-.776.238-.76.66-1.449 1.228-2.006.315-.256.578-.217.887.079.308.296 1.208-.901 2.338-.79a5.247 5.247 0 0 1 1.76.441c.078-.789.186-1.571.321-2.348 0 0 .073-.822-.656-.809h-3.547l-.078.171a3.119 3.119 0 0 1-2.942 1.835zM20.49 44.947a21.216 21.216 0 0 1-6.712-5.262c-1.07-1.085-1.957-.88-1.957-.88H8.275s-1.36 0-.572.874c3.218 3.374 7.401 5.044 12.11 5.84 1.202.165 1.563-.138.676-.572h.001zm-.677-5.255a1.208 1.208 0 0 0-1.313-.888h-3.396c-1.175 0-.17.92-.17.92A20.36 20.36 0 0 0 21.31 44.5c.696.276 1.018.243.73-.244-.894-1.262-1.564-3.301-2.227-4.564zM44 31.51h-4.696c-.52-.05-.997.293-1.116.803-.066.164-.079.335-.145.5.478.074.962.107 1.445.098 3.756-.105 2.528 1.598 2.26 1.907-.27.31-1.813.369-4.4.073l-.29-.033a23.27 23.27 0 0 1-1.425 2.295s-.545.829.19.822h4.433a1.89 1.89 0 0 0 1.721-1.012 20.038 20.038 0 0 0 2.719-4.361s.295-1.033-.696-1.092z" fill="#0072BC" fill-rule="nonzero"/><g transform="translate(4.597 12.496)" fill="#ED1C24"><path d="M36.54 21.783s.308 0 .249-.25c-.06-.25-.177-.178-.177-.178-2.16-.03-4.3-.4-6.344-1.098-1.72-.533-2.936-2.124-4.728-2.368-.29.178-.572.283-.539.658 1.038.599 2.305.5 3.047 2.032.847.507 5.444 1.276 8.491 1.204h.001zm-9.562-1.269c-.355-.849-1.471-.994-2.292-1.276-1.11 1.315-3.152-.21-4.157 1.38-.657-.46-.801-1.69-1.314-1.696l-.072.072c-.032.4.098.796.361 1.099a.783.783 0 0 1-.177 1.026c-.71.572-1.005.381-1.648.197-1.471-.355-.5-1.611-.86-2.493-.611 0-1.314-.355-1.793 0l2.469 3.144c2.233 2.256 5.09-.177 7.309-1.026.703-.25 1.524-.145 2.174-.427zM6.015.658c-1.182 1.447-3.08-.388-4.301.92a1.554 1.554 0 0 0-.4 1.645 3.542 3.542 0 0 1 3.69-.533c.749-.533.94-1.526 1.701-1.888.263-.217-.322-.447-.69-.144zm3.179.19c-.177-.164-.788.658-1.215.737-1.313-.25-1.97.572-2.58 1.454 1.22.532 2.206-.349 3.368-.658.457-.366.628-.983.427-1.533z" fill-rule="nonzero"/><path d="M.387 7.63a3.935 3.935 0 0 1 1.905-.448c.289-.815-1.313-1.204-.506-2.02.572-.282 1.077.25 1.537.428.967.217 1.98.022 2.798-.539.407-.473.998-.947.656-1.585-1.36 1.447-2.187-.954-3.69-.427-1.064.164-2.01 1.315-1.97 1.624C1.22 5.88-.113 6.426.386 7.63h.001zM2.22 9.76c.61-.315.433-.986.25-1.559-.073-.46-.612-.657-1.11-.526a.987.987 0 0 0-.657 1.06c.256.604.735 1.223 1.517 1.025zm5.588 3.716c.933-.657 2.364-.105 3.192-.92a3.336 3.336 0 0 0 1.038-2.125 2.633 2.633 0 0 0-.874-2.045 2.966 2.966 0 0 0-2.147-.744c-2.187.816 1.313 1.165 1.11 2.44-.546.895-.756 2.23-2.076 2.053-.656 1.13-.709.861-1.083 1.078.23.202.536.297.84.263zm27.943 4.664c1.15.427 1.898-.658 2.759-1.1a18.628 18.628 0 0 0-4.118-5.162l-2.83-2.124c-.5-.178-1.314-.178-1.4.493a9.076 9.076 0 0 1 2.759 1.973c.61.388.25 1.204-.25 1.381a7.24 7.24 0 0 1 1.544 3.946c.21.869 1.037.138 1.536.592v.001zM3.94 15.35c.467.145 1.15.145 1.4-.355.82-2.295-2.148-3.32-2.332-5.261-.322.658-1.077.46-1.544.493 1.222 1.612.217 4.17 2.476 5.124v-.001zm17.981-1.63c.25 0 0-.316 0-.316a107.893 107.893 0 0 0-7.125-3.216c-.86-.428-2.903-.178-2.148 1.276a2.18 2.18 0 0 1 1.36.782c1.871-.276 5.155.849 5.253.895.591.967 2.41.605 2.66.579z" fill-rule="nonzero"/><path d="M31.811 12.805c.29.033.657-.138.5-.493-.73-.888-2.063-1.69-2.628-1.381-.82 1.276-2.87.454-3.94 1.585-1.661 1.67-3.218 2.164-5.654 1.809a6.988 6.988 0 0 1-.381 3.683c3.008-.224 6.081-2.631 7.88-4.177a4.94 4.94 0 0 1 4.223-1.026zM8.209 16.857c1.937.657 3.086 1.131 5.116 1.184 1.26.033 2.489.17 3.67.098a8.869 8.869 0 0 0-.157-2.367c-1.182-.178-2.403-.25-3.283-1.204a1.883 1.883 0 0 1-.178-2.19 1.877 1.877 0 0 0-1.11-.493 3.65 3.65 0 0 1-3.283 1.769c-.966.953-1.878-.388-2.883.177 0 0-.539 1.724-.394 2.013.256.447 1.47.598 2.502 1.013z" fill-rule="nonzero"/><path d="M19.163 13.647a13.071 13.071 0 0 0-4.906-.914c-.398.169-.657.56-.656.993.538 1.625 2.528 1.131 3.815 1.697l.177 3.321c.393.243.87.307 1.314.178.177-.816.322-1.592.499-2.368.046-.96.532-2.23-.243-2.907zm-.703 5.768c-.361-.072-.906-.138-1.064.244-.157.381-.335.841.073 1.091 1.26.77 1.674-.335 1.674-.335a1.131 1.131 0 0 0-.683-1z" fill-rule="nonzero"/><ellipse cx="6.265" cy="11.983" rx="1.005" ry="1.019"/><path d="M8.787 11.418s.354-.533.657-1.02c.302-.487 0-.756 0-.756l-2.161-1.42a.505.505 0 0 0-.657.045s-.532.71-.801 1.112a.388.388 0 0 0 .112.598s1.773 1.085 2.24 1.44c.465.356.61 0 .61 0v.001zM2.962 8.254s.886-2.045.085-2.328c-.59-.21-.742.04-.578.348.164.31.611.58.29 1.368-.132.323.203.612.203.612z" fill-rule="nonzero"/></g></g><path svg-fill="none" d="M21.872 53.057l5.829 16.908H11.427l3.263-10.141h4.252l-1.956 6.316h4.993l-4.401-13.073 4.294-.01zm14.255.01h-7.508v4.028h5.25a4.366 4.366 0 0 1 4.479 4.382 4.457 4.457 0 0 1-1.355 3.153 4.443 4.443 0 0 1-3.19 1.25h-1.166v-6.152h-4.004v10.166h7.504c3.852-.355 6.626-4.29 6.626-8.413 0-4.124-3.08-8.063-6.636-8.414zm-22.429 5.28c0-2.934-2.438-5.227-5.34-5.322H2.106v4.01h5.711a1.326 1.326 0 0 1 1.3 1.312c.001.75-.59 1.366-1.338 1.395h-5.67v10.163h4.004v-6.153h2.26c2.924-.164 5.326-2.474 5.326-5.405h-.001zm30.058-5.28h4.146v16.831h-4.146V53.067z" fill="#FFF" fill-rule="nonzero"/></g></svg>