<svg viewBox="0 0 174 30" xmlns="http://www.w3.org/2000/svg"><g clip-path="url(#clip0)"><path d="M28.586 20.493c3.14-7.564-.46-16.237-8.041-19.37-7.581-3.133-16.273.459-19.413 8.023-3.14 7.565.46 16.237 8.041 19.37 7.581 3.134 16.272-.458 19.413-8.023z" fill="#fff"/><path d="M6.551 19.3h3.354c.546 0 .429-.506.429-.506-.04-.117-.04-.273-.04-.39-.428-.077-.779-.233-1.13-.35-.39-.155-.74-.31-1.326-.427-1.13-.234-1.599-.39-1.794-.74H5.81c-.078 0-.156-.039-.234-.039.078.662.195 1.323.351 1.946 0-.04.04.467.624.506zM16.69 5.642h-3.665c-.351 0-.741.272-.858.623l-.897 2.879c-.078.35.117.623.468.623h6.2c.351 0 .546-.273.468-.623l-.858-2.88c-.117-.31-.507-.622-.858-.622zM11.348 5.642H8.93c-.585 0-.897.545-.897.545-.078.117-.156.272-.234.389a.814.814 0 0 1 .156.233l.117.195h.195c.351.039.741-.74.741-.74s.819.973.468 1.674c-.312.661-.741.7-1.014.739-.039 0-.117 0-.117.039-.078.078-.195.117-.273.195 0 .233-.078.544-.273.856h2.223c.546 0 .663-.584.663-.584.234-1.05.585-2.062.936-3.035 0 .039.273-.467-.273-.506zM24.684 5.642h-1.95c-.818 0-.428.506-.428.506.78 1.09 1.13 1.868 1.56 3.035 0 0 .078.545.78.545h2.807c.741 0 .468-.7.468-.7-.468-1.207-1.209-2.374-1.794-2.997-.546-.428-1.443-.389-1.443-.389zM23.163 10.35H19.81c-.546 0-.43.506-.43.506.157.934.235 1.868.274 2.84a2.24 2.24 0 0 1 .975-.233c.039 0 .468.078.702-.156a.764.764 0 0 1 .35-.35l.04-.078c.078-.272.39-.661.897-.739h.234c.428 0 .74.234.936.39 0 0 .155.116.35.272a15.586 15.586 0 0 0-.35-1.946c0 .039-.079-.467-.625-.506zM23.788 18.755c.155-.623.272-1.284.35-1.985-.155-.505-.39-1.09-.819-1.478l-.155-.117c-.04 0-.741-.155-1.365.078-.507.194-.741.35-2.184 1.479 0 .233-.04.428-.078.661.39.039 1.014.195 1.599.662.312.233.936.739 2.379 1.089.233-.117.273-.39.273-.39zM18.367 23.969h2.418c.585 0 .897-.545.897-.545.585-.856 1.053-1.79 1.443-2.762-.936-.117-1.911-.35-2.652-.662l-.078.039c-.078 0-.741.194-1.287.194l-.078.156c-.234 1.05-.585 2.062-.936 3.035 0 .039-.273.545.273.545zM8.033 23.463s.312.545.897.545h2.418c.546 0 .273-.545.273-.545a19.566 19.566 0 0 1-.936-3.035s-.117-.545-.663-.584H6.824c-.585-.039-.35.584-.35.584.39 1.09.935 2.101 1.56 3.035zM24.762 10.35c-.506 0-.35.506-.35.506.194.778.35 1.634.39 2.451.311.234.584.467.74.584.156.117.39.35.624.584h2.301c.663 0 .585-.662.585-.662-.039-1.05-.234-1.868-.468-2.84 0 0-.156-.623-.897-.623h-2.925zM9.905 10.35H7.136c-.039.04-.078.04-.117.078a2.717 2.717 0 0 1-1.053.311c-.039.078-.039.156-.039.156a13.914 13.914 0 0 0-.35 1.75v.079s.038.311.311.622c.04.078.117.117.156.195.078-.117.195-.234.312-.35-.078-.117-.156-.234-.195-.35a.864.864 0 0 1 .117-.623l.43-.623a.943.943 0 0 1 .74-.389c.156 0 .312.04.468.117l.117-.117c.234-.194.546-.311.936-.311.312 0 .702.078 1.014.194.039.04.117.04.156.078 0-.078.039-.194.039-.272.156-.039.312-.545-.273-.545zM18.796 11.012c-.039-.35-.39-.662-.702-.662H11.66c-.351 0-.663.312-.702.662l-.078.622c.156.234.312.467.39.778.156-.077.35-.116.585-.116.195 0 .429.039.663.117.312.116 4.367 1.828 4.913 2.062h1.053c.117 0 .195-.04.273-.078l.039-.039.234-.234c.039-.077.078-.194.039-.31l-.273-2.802zM22.89 9.805c.585.04.351-.583.351-.583a15.914 15.914 0 0 0-1.56-3.035s-.311-.545-.896-.545h-2.418c-.546 0-.273.545-.273.545.39.973.702 1.984.936 3.035 0 0 .117.545.663.583h3.198zM16.105 18.444c.078.077.117.35.156.466.234-.155.546-.272.897-.272.04 0 .507.04.624.04.663.038.741-.312.741-.312.039-.195.195-.428.351-.584l.039-.467a7.96 7.96 0 0 1-2.808 1.129zM11.66 19.3h1.014a2.637 2.637 0 0 1-.234-.35l-.273-.39c-.39 0-.82-.039-1.21-.077v.155c0 .35.352.662.703.662zM13.025 23.969h3.665c.351 0 .741-.273.858-.623l.858-2.762c-.546.311-1.248.739-2.106.933a4.835 4.835 0 0 1-.702.078c-1.13 0-1.638-.622-1.833-.856 0 0-.35-.428-.662-.895h-1.326c-.351 0-.546.273-.468.623l.897 2.88c.078.35.468.622.819.622zM12.284 25.058s-.195-.583-.78-.583H9.398c-.74 0-.117.583-.117.583 1.17 1.362 2.652 2.685 4.25 3.425.624.272.702.272.43-.117-.312-.584-1.287-2.49-1.677-3.308zM16.456 24.475H13.26c-.351 0-.507.272-.351.622 0 0 .662 1.712 1.365 2.919.233.428.311.467.545.467.234 0 .312-.04.546-.467.702-1.207 1.365-2.919 1.365-2.919.234-.35.078-.622-.273-.622z" fill="#0070D3"/><path d="M13.415 28.755c-2.028-.895-3.51-2.218-4.758-3.697-.585-.622-1.209-.583-1.209-.583H5.264s-.819 0-.312.544c1.911 1.83 4.446 3.269 7.41 3.814.702.116 1.832.272 1.053-.078zM20.395 25.058s.624-.583-.117-.583h-2.106c-.585 0-.78.583-.78.583-.39.856-1.365 2.763-1.716 3.308-.234.389-.156.389.43.117 1.637-.74 3.119-2.063 4.289-3.425zM28.467 15.136h-1.755c.585.7 1.131 1.518 1.326 1.985l.078.233c.078.195 0 .39-.195.467l-.234.078s-.273.078-.624.428c-.273.233-.585.389-.897.389-.312 0-.585-.117-.702-.195 0 0-.35-.038-.585-.038h-.429c-.039.116-.039.233-.078.35 0 0-.117.506.351.506h2.964c.741 0 .897-.623.897-.623.273-.973.429-1.79.468-2.84.039-.078.078-.74-.585-.74zM5.03 23.969h1.95c.82 0 .43-.506.43-.506-.78-1.09-1.132-1.868-1.56-3.035 0 0-.079-.545-.78-.545H2.3c-.74 0-.467.7-.467.7.468 1.207 1.209 2.374 1.794 2.997.507.467 1.403.389 1.403.389z" fill="#0070D3"/><path d="M24.45 24.475h-2.183s-.624-.04-1.21.583c-1.208 1.479-2.729 2.802-4.757 3.697-.78.35.351.233 1.092.078a14.258 14.258 0 0 0 7.41-3.813c.467-.545-.352-.545-.352-.545zM27.414 19.844h-.507a.657.657 0 0 1 .117.39c0 .661-.78.661-1.326.661-.507 0-1.209-.039-1.95-.117a9.503 9.503 0 0 1-1.442 2.685s-.39.506.429.506h1.95s.896.039 1.403-.467c.585-.623 1.326-1.79 1.794-2.996 0 .039.273-.662-.468-.662zM17.392 4.591s.195.584.78.584h2.106c.74 0 .117-.584.117-.584-1.17-1.361-2.652-2.684-4.25-3.424-.625-.272-.703-.272-.43.117a64.062 64.062 0 0 1 1.677 3.307zM4.952 19.3c.507 0 .351-.506.351-.506a14.855 14.855 0 0 1-.39-2.296 2.095 2.095 0 0 1-.78-1.362H1.21c-.663 0-.585.662-.585.662.039 1.05.234 1.867.468 2.84 0 0 .156.623.897.623h2.963v.039zM13.259 5.175h3.197c.351 0 .507-.272.351-.622 0 0-.663-1.713-1.365-2.919-.273-.428-.35-.467-.585-.467-.234 0-.312.04-.545.467-.702 1.206-1.365 2.919-1.365 2.919-.195.35-.04.622.312.622z" fill="#0070D3"/><path d="M16.3.895c2.028.934 3.549 2.218 4.758 3.696.585.623 1.209.584 1.209.584h2.183s.82 0 .312-.545c-1.91-1.828-4.445-3.268-7.409-3.813C16.651.7 15.52.545 16.3.895zM9.32 4.591s-.624.584.117.584h2.106c.585 0 .78-.584.78-.584.39-.856 1.365-2.762 1.716-3.307.234-.389.155-.389-.43-.117-1.637.74-3.12 2.063-4.289 3.424zM1.209 14.514h2.847c-.04-.312-.078-.545-.351-1.051-.39-.74-.39-1.128-.624-1.479l-.156-.31c-.04-.04-.273-.546-.04-1.207.04-.039.04-.078.079-.156h-.975c-.741 0-.897.623-.897.623-.273.973-.43 1.79-.468 2.84 0 .078-.078.74.585.74z" fill="#0070D3"/><path d="M5.264 5.175h2.184s.624.039 1.209-.584c1.209-1.478 2.73-2.801 4.758-3.696.78-.35-.351-.234-1.092-.078a14.258 14.258 0 0 0-7.41 3.813c-.468.545.351.545.351.545zM2.3 9.805h.976v-.077c.039-.156.078-.428.195-.7l-.078-.195c-.117-.312-.156-.973.39-1.557.312-.35.701-.506 1.17-.506.35 0 .74.234 1.13.195.117 0 .156-.039.156-.039.312-.35.624-.506.936-.506h.04c.038-.078.077-.116.155-.194 0 0 .39-.506-.429-.506h-1.95s-.896-.039-1.403.467c-.585.622-1.326 1.79-1.794 2.996.039-.078-.234.622.507.622z" fill="#0070D3"/><path d="M3.432 11.44s-.156-.312 0-.7c.156-.39.35-.429.429-.896.078-.467.234-1.128 1.17-1.323.935-.194 1.598 1.168 2.417.273 0 0 .156.7-.702 1.167-.819.428-1.443.156-1.677.078-.234-.078-.702-.467-.857 0-.156.467.78.311.584 1.128.04 0-.74-.506-1.364.273zm2.924-3.152s.312-.195.546-.7c.234-.506.546-.506.546-.506-.156-.273-.429-.117-.702.194-.273.312-.897.195-1.13.117-.235-.078-.898-.272-1.326.233-.43.506-.273 1.012-.273 1.012 1.052-.973 2.34-.35 2.34-.35zm1.6.039c.35-.273.701.039.974-.545.156-.389 0-.661 0-.661-.35.544-.585.505-1.13.428-.547-.078-.586.155-.82.505-.234.35-.429.428-.429.428.312.273 1.092.117 1.404-.155zM4.094 11.44c-.351.116-.546.505-.43.895.118.389.508.583.858.505.351-.077.546-.505.43-.895-.157-.389-.508-.622-.858-.505zm.584 3.58c.078.778.702 1.284 1.17 1.322.507.04.78-.194.78-.817 0-.622-.702-1.323-1.13-1.79-.43-.466-.43-.972-.43-.972-.35.544-.974.272-.974.272.428.467.506 1.206.584 1.984zm2.457-1.518a.657.657 0 0 0-.663.661c0 .39.273.662.663.662s.663-.272.663-.662a.657.657 0 0 0-.663-.661zm1.638.233l.39-.661c.117-.156.039-.39-.117-.506l-1.287-.817c-.156-.117-.39-.039-.507.117l-.429.622c-.078.117-.039.273.078.39l1.482.933c.156.117.312.078.39-.078zm-.819 1.012c-.078.117-.35.156-.35.156.935.311.428-.04 1.325-.078.897-.039 1.443-.272 1.794-1.284a1.63 1.63 0 0 0-.78-2.024c-.507-.233-1.131-.233-1.404 0-.273.234.04.35.04.35s.506.312.818.545c.312.234.156.545.156.545s-.351.778-.585 1.05c-.234.312-.702.234-.702.234s-.234.39-.312.506zm0 2.335c1.326.272 1.755.739 3.003.856 1.248.116 3.041.116 3.041.116-.117-.894-.078-1.478-.078-1.478-1.325-.234-1.871-.311-2.3-.817-.43-.506.078-1.284.078-1.284-.351-.35-.78-.35-.78-.35-.468.894-1.56 1.128-1.833 1.089-.273-.039-.39 0-.585.117-.195.116-.39.116-.897-.078-.507-.195-.546.117-.546.117-.078 1.128-.35 1.011-.468 1.167-.156.117.078.272 1.365.545zm7.604-2.063c.858.662 1.794.39 1.794.39.156-.273-.117-.39-.117-.39s-4.601-1.984-4.913-2.062c-.273-.117-.702-.194-1.014.117-.312.272-.234.74-.234.74.78.155.975.544.975.544 1.56-.156 3.158.39 3.51.661zm-1.364 1.284c-.04.195.117 2.102.117 2.102.35.272.78.116.78.116.233-.583.545-2.607.39-2.996-.118-.389-.352-.467-1.365-.7-1.014-.234-1.794-.272-1.95-.234-.195.04-.43.312-.351.74.078.389.663.583.663.583.624.234 1.716.39 1.716.39zm.623 3.541c.351-.039.507-.389.351-.7-.156-.311-.546-.39-.78-.311-.233.078-.311.389-.311.389-.117.506.39.661.74.622zm1.053-4.202s.04 1.09-.273 2.335c0 0 1.677-.078 3.393-1.401 1.716-1.323 1.989-1.557 2.613-1.751.624-.234 1.014-.195 1.326-.156.312 0 .546.156.701-.078.117-.233-.662-.856-1.13-1.011-.468-.156-.585-.078-.702.117-.078.194-.624.428-1.092.389-.468-.04-1.131.194-1.482.7-.39.428-1.755 1.284-3.354.856zm8.19-1.167c.078.311-.352.467-.352.467 1.092.972 1.21 2.957 1.21 2.957s.584 0 .74.078c.156.077.624.35 1.053-.078.468-.428.82-.545.82-.545-.313-.778-1.756-2.568-2.34-2.996a42.93 42.93 0 0 1-1.639-1.284c-.233-.195-.467-.428-.818-.39-.39.079-.468.39-.468.39.858.311 1.677 1.09 1.794 1.4zm-9.944 5.875c.155.195.623.934 2.027.623 1.404-.273 2.379-1.284 2.886-1.284.507.039 1.209-.156 1.209-.156-.351-.7-1.443-.817-1.443-.817-.273.389-.74.428-1.56.389-.819-.039-1.053.506-1.053.506s-.234 0-.35-.428c-.118-.428-.352-.584-.352-.584s-.273.195-.078.467c.195.273.117.584.078.7-.117.312-.74.584-1.248.234-.662-.39-.194-1.362-.194-1.362h-1.17s1.091 1.518 1.248 1.712zm6.473-.856c1.95.817 5.85.973 5.85.74 0-.195-.235-.195-.235-.195-3.548-.117-4.796-1.05-5.42-1.518-.624-.506-1.365-.622-1.365-.622-.351.039-.468.467-.468.467 1.13.078 1.638 1.128 1.638 1.128z" fill="#F23D4E"/><path d="M54.79 5.642l6.278 18.327h-17.51l3.549-10.934h4.563l-2.145 6.576h5.46l-4.72-13.969h4.524zM70.466 5.642h-8.19V10h5.694c2.73 0 4.874 2.101 4.874 4.786 0 2.724-2.222 4.786-4.952 4.786h-1.287v-6.537h-4.368v10.934h8.19c4.172-.39 7.214-4.67 7.214-9.144.039-4.475-3.315-8.794-7.175-9.183zM46.054 11.44c0-3.19-2.651-5.681-5.81-5.759h-6.785v4.358h6.2c.78.039 1.404.623 1.404 1.44s-.663 1.556-1.443 1.595h-6.2v10.934h4.367v-6.693h2.457c3.197-.194 5.81-2.685 5.81-5.875zM83.14 5.642h-4.368v18.327h4.367V5.642zM87.897 7.354V5.681h14.116v1.673H95.93v16.77h-1.91V7.355h-6.123zM101.623 11.79a9.318 9.318 0 0 1 5.031-1.44c.741 0 1.482.078 2.262.273v1.828c-.702-.233-1.482-.35-2.418-.35-1.209 0-2.262.234-3.042.7v11.324h-1.833V11.79zM109.579 20.35c0-1.323.585-2.335 1.715-3.035 1.17-.7 2.769-1.05 4.875-1.05h1.521V14.63c0-.856-.234-1.517-.741-1.945-.507-.467-1.209-.662-2.106-.662-1.248 0-2.574.35-3.977 1.09v-1.79c1.286-.7 2.69-1.05 4.211-1.05 3.003 0 4.524 1.4 4.524 4.24v9.378c-1.17.311-2.457.467-3.861.467-1.911 0-3.432-.311-4.485-.973-1.13-.661-1.676-1.673-1.676-3.035zm3.197-1.906c-.858.428-1.326 1.05-1.326 1.945 0 .856.39 1.479 1.17 1.868.78.389 1.833.583 3.198.583.624 0 1.248-.077 1.872-.194v-4.864h-1.404c-1.482 0-2.652.233-3.51.662zM121.316 6.342c0-.389.156-.7.429-1.011.273-.273.624-.428.975-.428.39 0 .702.155.975.428.273.272.429.622.429 1.011 0 .39-.156.7-.429.973s-.585.428-.975.428-.702-.155-.975-.428c-.273-.272-.429-.584-.429-.973zm.468 4.242h1.872v13.54h-1.872v-13.54zM126.113 11.284a16.135 16.135 0 0 1 5.693-1.012c3.666 0 5.499 1.557 5.499 4.708v9.106h-1.872V15.37c0-2.218-1.248-3.347-3.783-3.347-1.13 0-2.378.156-3.665.506v11.596h-1.872V11.284zM139.138 6.342c0-.389.156-.7.429-1.011.273-.273.623-.428.974-.428.39 0 .702.155.975.428.273.272.429.622.429 1.011 0 .39-.156.7-.429.973s-.585.428-.975.428-.701-.155-.974-.428c-.273-.272-.429-.584-.429-.973zm.468 4.242h1.871v13.54h-1.871v-13.54zM143.934 11.284a16.137 16.137 0 0 1 5.694-1.012c3.665 0 5.498 1.557 5.498 4.708v9.106h-1.872V15.37c0-2.218-1.248-3.347-3.782-3.347-1.131 0-2.379.156-3.666.506v11.596h-1.872V11.284zM156.413 17.237c0-2.179.702-3.852 2.106-5.097 1.403-1.245 3.314-1.868 5.693-1.868.702 0 1.482.078 2.301.234.819.155 1.56.35 2.106.622v13.113c0 .817-.117 1.518-.351 2.18-.234.66-.546 1.205-.936 1.634-.39.428-.858.817-1.404 1.089-.546.311-1.092.506-1.677.661a9.439 9.439 0 0 1-1.833.195c-1.599 0-3.003-.272-4.211-.817v-1.79c1.442.7 2.846 1.012 4.211 1.012.585 0 1.131-.078 1.638-.234.507-.155.975-.389 1.365-.74.429-.35.741-.816.975-1.4.234-.622.351-1.323.351-2.14v-.272c-.234.155-.624.31-1.17.428a7.798 7.798 0 0 1-1.599.194c-2.301 0-4.134-.583-5.498-1.79-1.404-1.206-2.067-2.957-2.067-5.214zm1.872 0c0 1.635.507 2.919 1.52 3.853 1.014.972 2.418 1.44 4.173 1.44.936 0 1.872-.195 2.808-.546v-9.65a8.193 8.193 0 0 0-2.535-.389c-1.872 0-3.315.467-4.368 1.401-1.091.934-1.598 2.218-1.598 3.891zM170.334 22.49a.957.957 0 0 0 .468.156c.273 0 .429-.156.429-.35 0-.195-.117-.312-.39-.428-.351-.117-.546-.312-.546-.584 0-.311.273-.584.663-.584.195 0 .39.04.468.117l-.078.234c-.078-.04-.195-.117-.39-.117-.273 0-.39.155-.39.311 0 .195.117.311.429.39.351.155.546.31.546.622 0 .311-.234.622-.741.622a1.13 1.13 0 0 1-.546-.155l.078-.234zM173.688 21.907c0-.312-.039-.662-.039-.895-.078.233-.156.505-.273.778l-.39 1.012h-.195l-.351-1.012a4.474 4.474 0 0 1-.234-.817c0 .272-.039.622-.039.934l-.039.895h-.273l.156-2.102h.351l.351 1.012c.078.272.156.506.195.7a3.66 3.66 0 0 1 .234-.7l.39-1.012h.351l.117 2.102h-.273l-.039-.895z" fill="#000"/></g><defs><clipPath id="clip0"><path fill="#fff" d="M0 0h174v30H0z"/></clipPath></defs></svg>